<svg xmlns="http://www.w3.org/2000/svg" width="97" height="97"><defs><linearGradient id="a" x1="61.43" x2="61.43" y1="101.51" y2="-30.63" gradientUnits="userSpaceOnUse"><stop offset="0" stop-color="#ffd79d"/><stop offset="1" stop-color="#ffe8bc"/></linearGradient></defs><path fill="#ffa065" d="M13.617 9.011V1.22s-10.022-.08-10.91-.08C1.819 1.14.98 1.7 1 2.829 1.021 3.958 1 9.01 1 9.01z"/><path fill="none" stroke="#f59357" stroke-miterlimit="20" d="M13.617 9.011v0V1.22v0s-10.022-.08-10.91-.08C1.819 1.14.98 1.7 1 2.829 1.021 3.958 1 9.01 1 9.01v0z"/><path fill="#ffa065" d="M87.42 83.423h8.008s.08 10.022.08 10.91c0 .888-.56 1.727-1.689 1.707-1.129-.021-6.399 0-6.399 0z"/><path fill="none" stroke="#f59357" stroke-miterlimit="20" d="M87.42 83.423h8.008s.08 10.022.08 10.91c0 .888-.56 1.727-1.689 1.707-1.129-.021-6.399 0-6.399 0h0z"/><path fill="url(#a)" d="M43.88-29.424a.5.5 0 01.854-.35L77.807 3.565a6 6 0 011.74 4.22l.05 54.904a6 6 0 01-1.758 4.248l-33.71 33.71a.5.5 0 01-.853-.356z" transform="rotate(-45 49.5 48)"/><path fill="none" stroke="#ffb472" stroke-miterlimit="20" d="M-9.221-2.773a.5.5 0 01.356-.851l46.96.188a6 6 0 014.215 1.753l38.858 38.788a6 6 0 011.761 4.247v47.673a.5.5 0 01-.855.351z"/><path fill="#de4e01" d="M75.58 54.718c.297.132.586.2.866.208.376-.002.644-.082.802-.24l.604-.605a4.357 4.357 0 00-.945-1.424c-.397-.396-.806-.633-1.227-.711-.423-.079-.771.021-1.05.299-.24.24-.352.544-.336.91.014.367.181.71.502 1.03.224.224.485.401.782.532zm-3.255-1.868c-.037-.744.212-1.384.746-1.917.575-.575 1.275-.804 2.102-.688.827.115 1.617.55 2.373 1.306.567.567.963 1.121 1.188 1.663l.314-.315c.38-.38.559-.782.539-1.208-.02-.425-.25-.857-.687-1.295a3.59 3.59 0 00-1.07-.743 6.793 6.793 0 00-1.45-.439l.502-1.486c1.308.276 2.4.853 3.277 1.73.846.846 1.293 1.716 1.34 2.609.045.894-.324 1.732-1.109 2.516l-1.89 1.89c-.161.162-.248.305-.26.428-.013.123.04.256.162.4l-1.232 1.232a4.729 4.729 0 01-.724-.568c-.291-.292-.453-.58-.486-.868a1.134 1.134 0 01.216-.807l.27-.337a3.688 3.688 0 01-1.723-.192 3.87 3.87 0 01-1.453-.907c-.593-.593-.908-1.261-.944-2.005zm-4.844-4.006l4.607-4.608-1.878-1.878 1.32-1.32 5.28 5.28-1.32 1.32-1.889-1.888-4.607 4.607zm.517-9.05l-1.063-1.063c-.268-.268-.555-.407-.864-.418-.308-.011-.582.105-.824.346-.246.246-.374.519-.385.82-.011.3.114.581.374.841l1.118 1.118zm-8.544 1.023l3.812-.807c-.262-.467-.35-.945-.266-1.436.085-.49.357-.965.818-1.426.578-.577 1.24-.848 1.988-.811.748.036 1.435.368 2.06.994l2.819 2.818-5.95 5.95-1.513-1.514 2.049-2.05-.807-.806-3.347.75zm-6.502-6.502l5.927-5.928 1.514 1.513-2.26 2.26 2.403 2.404 2.26-2.26 1.513 1.513-5.927 5.928-1.514-1.513 2.397-2.398-2.402-2.402-2.397 2.397zm-2.636-4.86c.298.132.588.201.867.208.378 0 .646-.08.804-.238l.605-.605a4.38 4.38 0 00-.95-1.427c-.397-.398-.807-.636-1.23-.714-.422-.08-.772.02-1.05.298-.24.24-.352.544-.335.911.014.367.183.71.504 1.032.224.224.486.402.785.534zm-3.259-1.873c-.037-.744.212-1.384.746-1.918.574-.575 1.275-.803 2.102-.687.829.117 1.62.553 2.376 1.309.567.567.964 1.123 1.189 1.664l.315-.314c.38-.38.558-.783.538-1.208-.02-.426-.25-.859-.688-1.297a3.6 3.6 0 00-1.07-.744 6.804 6.804 0 00-1.452-.44l.502-1.487c1.308.277 2.402.855 3.28 1.733.848.848 1.294 1.719 1.341 2.612.046.894-.322 1.732-1.107 2.517l-1.89 1.89c-.161.161-.248.305-.261.428-.013.123.04.256.163.4l-1.232 1.233a4.738 4.738 0 01-.725-.57c-.291-.292-.453-.58-.487-.869a1.133 1.133 0 01.216-.806l.27-.338a3.687 3.687 0 01-1.724-.193 3.866 3.866 0 01-1.454-.908c-.594-.594-.91-1.263-.947-2.008zm-6.143-5.94a4.226 4.226 0 01-.121-2.337l1.889.442c-.107.49-.09.97.053 1.439.141.47.41.902.803 1.295.465.465.924.717 1.381.758.457.04.863-.116 1.216-.47.347-.346.504-.74.473-1.18-.032-.44-.273-.884-.722-1.334l-.961-.96 1.188-1.188.972.972c.357.357.727.543 1.11.558.383.015.726-.129 1.028-.43.31-.31.447-.666.415-1.067-.034-.402-.257-.808-.67-1.22-.401-.402-.827-.672-1.279-.81a2.425 2.425 0 00-1.328-.042l-.332-1.911c1.665-.31 3.131.17 4.398 1.436.84.84 1.31 1.692 1.411 2.555.101.864-.19 1.639-.875 2.323a2.896 2.896 0 01-1.335.777c-.502.13-1.019.092-1.549-.114.309.575.416 1.16.318 1.76-.098.598-.379 1.129-.843 1.593-.483.483-1.028.77-1.637.86-.61.09-1.224 0-1.84-.271-.617-.271-1.213-.693-1.788-1.268-.655-.655-1.113-1.378-1.374-2.167z"/></svg>