<svg xmlns="http://www.w3.org/2000/svg" width="248" height="252"><defs><filter id="a" width="228" height="230" x="12" y="14" filterUnits="userSpaceOnUse"><feOffset dx="4" dy="6" in="SourceGraphic" result="FeOffset1115Out"/><feGaussianBlur in="FeOffset1115Out" result="FeGaussianBlur1116Out" stdDeviation="3.2 3.2"/></filter><filter id="c" width="272" height="274" x="-10" y="-8" filterUnits="userSpaceOnUse"><feOffset dx="4" dy="6" in="SourceGraphic" result="FeOffset1126Out"/><feGaussianBlur in="FeOffset1126Out" result="FeGaussianBlur1127Out" stdDeviation="12 12"/></filter><filter id="e" width="272" height="274" x="-14" y="-14" filterUnits="userSpaceOnUse"><feOffset dx="-4" dy="-6" in="SourceGraphic" result="FeOffset1137Out"/><feGaussianBlur in="FeOffset1137Out" result="FeGaussianBlur1138Out" stdDeviation="12 12"/></filter><filter id="g" width="213" height="213" x="18" y="20" filterUnits="userSpaceOnUse"><feOffset dx="1" dy="1" in="SourceGraphic" result="FeOffset1148Out"/><feGaussianBlur in="FeOffset1148Out" result="FeGaussianBlur1149Out" stdDeviation="0.8 0.8"/></filter><filter id="j" width="200%" height="200%" x="-50%" y="-50%"><feGaussianBlur in="SourceGraphic" result="FeGaussianBlur1157Out" stdDeviation="2 2"/></filter><filter id="m" width="148%" height="148%" x="-14%" y="-14%" filterUnits="objectBoundingBox"><feGaussianBlur in="SourceGraphic" result="FeGaussianBlur1171Out" stdDeviation="3 3"/></filter><filter id="o" width="148%" height="148%" x="-14%" y="-14%" filterUnits="objectBoundingBox"><feGaussianBlur in="SourceGraphic" result="FeGaussianBlur1183Out" stdDeviation="3 3"/></filter><filter id="r" width="200%" height="200%" x="-50%" y="-50%"><feGaussianBlur in="SourceGraphic" result="FeGaussianBlur1197Out" stdDeviation="18.5 18.5"/></filter><filter id="v" width="27" height="28" x="111" y="70" filterUnits="userSpaceOnUse"><feOffset dy="1" in="SourceGraphic" result="FeOffset1218Out"/><feGaussianBlur in="FeOffset1218Out" result="FeGaussianBlur1219Out" stdDeviation="0.4 0.4"/></filter><filter id="x" width="26" height="28" x="123" y="70" filterUnits="userSpaceOnUse"><feOffset dy="1" in="SourceGraphic" result="FeOffset1234Out"/><feGaussianBlur in="FeOffset1234Out" result="FeGaussianBlur1235Out" stdDeviation="0.4 0.4"/></filter><filter id="z" width="27" height="28" x="99" y="70" filterUnits="userSpaceOnUse"><feOffset dy="1" in="SourceGraphic" result="FeOffset1250Out"/><feGaussianBlur in="FeOffset1250Out" result="FeGaussianBlur1251Out" stdDeviation="0.4 0.4"/></filter><filter id="B" width="26" height="27" x="117" y="61" filterUnits="userSpaceOnUse"><feOffset dy="1" in="SourceGraphic" result="FeOffset1266Out"/><feGaussianBlur in="FeOffset1266Out" result="FeGaussianBlur1267Out" stdDeviation="0.4 0.4"/></filter><filter id="D" width="26" height="27" x="128" y="61" filterUnits="userSpaceOnUse"><feOffset dy="1" in="SourceGraphic" result="FeOffset1282Out"/><feGaussianBlur in="FeOffset1282Out" result="FeGaussianBlur1283Out" stdDeviation="0.4 0.4"/></filter><filter id="F" width="27" height="27" x="106" y="61" filterUnits="userSpaceOnUse"><feOffset dy="1" in="SourceGraphic" result="FeOffset1298Out"/><feGaussianBlur in="FeOffset1298Out" result="FeGaussianBlur1299Out" stdDeviation="0.4 0.4"/></filter><filter id="H" width="27" height="27" x="95" y="61" filterUnits="userSpaceOnUse"><feOffset dy="1" in="SourceGraphic" result="FeOffset1314Out"/><feGaussianBlur in="FeOffset1314Out" result="FeGaussianBlur1315Out" stdDeviation="0.4 0.4"/></filter><filter id="J" width="56" height="58" x="96" y="98" filterUnits="userSpaceOnUse"><feOffset dy="2" in="SourceGraphic" result="FeOffset1330Out"/><feGaussianBlur in="FeOffset1330Out" result="FeGaussianBlur1331Out" stdDeviation="1.2 1.2"/></filter><filter id="M" width="200%" height="200%" x="-50%" y="-50%"><feGaussianBlur in="SourceGraphic" result="FeGaussianBlur1699Out" stdDeviation="1 1"/></filter><filter id="O" width="89" height="132" x="115" y="80" filterUnits="userSpaceOnUse"><feOffset dy="2" in="SourceGraphic" result="FeOffset1716Out"/><feGaussianBlur in="FeOffset1716Out" result="FeGaussianBlur1717Out" stdDeviation="0.8 0.8"/></filter><filter id="R" width="89" height="132" x="43" y="80" filterUnits="userSpaceOnUse"><feOffset dy="2" in="SourceGraphic" result="FeOffset1736Out"/><feGaussianBlur in="FeOffset1736Out" result="FeGaussianBlur1737Out" stdDeviation="0.8 0.8"/></filter><filter id="U" width="145" height="53" x="51" y="66" filterUnits="userSpaceOnUse"><feOffset dy="1" in="SourceGraphic" result="FeOffset1756Out"/><feGaussianBlur in="FeOffset1756Out" result="FeGaussianBlur1757Out" stdDeviation="0.8 0.8"/></filter><filter id="X" width="26" height="27" x="73" y="137" filterUnits="userSpaceOnUse"><feOffset dy="1" in="SourceGraphic" result="FeOffset1778Out"/><feGaussianBlur in="FeOffset1778Out" result="FeGaussianBlur1779Out" stdDeviation="0.4 0.4"/></filter><filter id="Z" width="26" height="28" x="79" y="145" filterUnits="userSpaceOnUse"><feOffset dy="1" in="SourceGraphic" result="FeOffset1794Out"/><feGaussianBlur in="FeOffset1794Out" result="FeGaussianBlur1795Out" stdDeviation="0.4 0.4"/></filter><filter id="ab" width="26" height="27" x="85" y="154" filterUnits="userSpaceOnUse"><feOffset dy="1" in="SourceGraphic" result="FeOffset1810Out"/><feGaussianBlur in="FeOffset1810Out" result="FeGaussianBlur1811Out" stdDeviation="0.4 0.4"/></filter><filter id="ad" width="27" height="28" x="69" y="146" filterUnits="userSpaceOnUse"><feOffset dy="1" in="SourceGraphic" result="FeOffset1826Out"/><feGaussianBlur in="FeOffset1826Out" result="FeGaussianBlur1827Out" stdDeviation="0.4 0.4"/></filter><filter id="af" width="27" height="28" x="63" y="138" filterUnits="userSpaceOnUse"><feOffset dy="1" in="SourceGraphic" result="FeOffset1842Out"/><feGaussianBlur in="FeOffset1842Out" result="FeGaussianBlur1843Out" stdDeviation="0.4 0.4"/></filter><filter id="ah" width="26" height="28" x="59" y="146" filterUnits="userSpaceOnUse"><feOffset dy="1" in="SourceGraphic" result="FeOffset1858Out"/><feGaussianBlur in="FeOffset1858Out" result="FeGaussianBlur1859Out" stdDeviation="0.4 0.4"/></filter><filter id="aj" width="26" height="27" x="52" y="137" filterUnits="userSpaceOnUse"><feOffset dy="1" in="SourceGraphic" result="FeOffset1874Out"/><feGaussianBlur in="FeOffset1874Out" result="FeGaussianBlur1875Out" stdDeviation="0.4 0.4"/></filter><filter id="al" width="26" height="27" x="65" y="156" filterUnits="userSpaceOnUse"><feOffset dy="1" in="SourceGraphic" result="FeOffset1890Out"/><feGaussianBlur in="FeOffset1890Out" result="FeGaussianBlur1891Out" stdDeviation="0.4 0.4"/></filter><filter id="an" width="26" height="27" x="58" y="130" filterUnits="userSpaceOnUse"><feOffset dy="1" in="SourceGraphic" result="FeOffset1906Out"/><feGaussianBlur in="FeOffset1906Out" result="FeGaussianBlur1907Out" stdDeviation="0.4 0.4"/></filter><filter id="ap" width="27" height="27" x="75" y="155" filterUnits="userSpaceOnUse"><feOffset dy="1" in="SourceGraphic" result="FeOffset1922Out"/><feGaussianBlur in="FeOffset1922Out" result="FeGaussianBlur1923Out" stdDeviation="0.4 0.4"/></filter><filter id="ar" width="27" height="27" x="81" y="163" filterUnits="userSpaceOnUse"><feOffset dy="1" in="SourceGraphic" result="FeOffset1938Out"/><feGaussianBlur in="FeOffset1938Out" result="FeGaussianBlur1939Out" stdDeviation="0.4 0.4"/></filter><filter id="at" width="27" height="27" x="148" y="137" filterUnits="userSpaceOnUse"><feOffset dy="1" in="SourceGraphic" result="FeOffset1956Out"/><feGaussianBlur in="FeOffset1956Out" result="FeGaussianBlur1957Out" stdDeviation="0.4 0.4"/></filter><filter id="av" width="27" height="28" x="142" y="145" filterUnits="userSpaceOnUse"><feOffset dy="1" in="SourceGraphic" result="FeOffset1972Out"/><feGaussianBlur in="FeOffset1972Out" result="FeGaussianBlur1973Out" stdDeviation="0.4 0.4"/></filter><filter id="ax" width="26" height="27" x="137" y="154" filterUnits="userSpaceOnUse"><feOffset dy="1" in="SourceGraphic" result="FeOffset1988Out"/><feGaussianBlur in="FeOffset1988Out" result="FeGaussianBlur1989Out" stdDeviation="0.4 0.4"/></filter><filter id="az" width="26" height="28" x="152" y="146" filterUnits="userSpaceOnUse"><feOffset dy="1" in="SourceGraphic" result="FeOffset2004Out"/><feGaussianBlur in="FeOffset2004Out" result="FeGaussianBlur2005Out" stdDeviation="0.4 0.4"/></filter><filter id="aB" width="26" height="28" x="158" y="138" filterUnits="userSpaceOnUse"><feOffset dy="1" in="SourceGraphic" result="FeOffset2020Out"/><feGaussianBlur in="FeOffset2020Out" result="FeGaussianBlur2021Out" stdDeviation="0.4 0.4"/></filter><filter id="aD" width="26" height="28" x="163" y="146" filterUnits="userSpaceOnUse"><feOffset dy="1" in="SourceGraphic" result="FeOffset2036Out"/><feGaussianBlur in="FeOffset2036Out" result="FeGaussianBlur2037Out" stdDeviation="0.4 0.4"/></filter><filter id="aF" width="26" height="27" x="170" y="137" filterUnits="userSpaceOnUse"><feOffset dy="1" in="SourceGraphic" result="FeOffset2052Out"/><feGaussianBlur in="FeOffset2052Out" result="FeGaussianBlur2053Out" stdDeviation="0.4 0.4"/></filter><filter id="aH" width="26" height="27" x="157" y="156" filterUnits="userSpaceOnUse"><feOffset dy="1" in="SourceGraphic" result="FeOffset2068Out"/><feGaussianBlur in="FeOffset2068Out" result="FeGaussianBlur2069Out" stdDeviation="0.4 0.4"/></filter><filter id="aJ" width="26" height="27" x="164" y="130" filterUnits="userSpaceOnUse"><feOffset dy="1" in="SourceGraphic" result="FeOffset2084Out"/><feGaussianBlur in="FeOffset2084Out" result="FeGaussianBlur2085Out" stdDeviation="0.4 0.4"/></filter><filter id="aL" width="26" height="27" x="146" y="155" filterUnits="userSpaceOnUse"><feOffset dy="1" in="SourceGraphic" result="FeOffset2100Out"/><feGaussianBlur in="FeOffset2100Out" result="FeGaussianBlur2101Out" stdDeviation="0.4 0.4"/></filter><filter id="aN" width="27" height="27" x="140" y="163" filterUnits="userSpaceOnUse"><feOffset dy="1" in="SourceGraphic" result="FeOffset2116Out"/><feGaussianBlur in="FeOffset2116Out" result="FeGaussianBlur2117Out" stdDeviation="0.4 0.4"/></filter><filter id="aP" width="194" height="157" x="27" y="27" filterUnits="userSpaceOnUse"><feOffset dy="4" in="SourceGraphic" result="FeOffset2132Out"/><feGaussianBlur in="FeOffset2132Out" result="FeGaussianBlur2133Out" stdDeviation="8 8"/></filter><filter id="aS" width="200%" height="200%" x="-50%" y="-50%"><feGaussianBlur in="SourceGraphic" result="FeGaussianBlur2141Out" stdDeviation="4 4"/></filter><filter id="aU" width="148%" height="152%" x="-14%" y="-16%" filterUnits="objectBoundingBox"><feGaussianBlur in="SourceGraphic" result="FeGaussianBlur2152Out" stdDeviation="1 1"/></filter><filter id="aW" width="144%" height="148%" x="-12%" y="-14%" filterUnits="objectBoundingBox"><feGaussianBlur in="SourceGraphic" result="FeGaussianBlur2159Out" stdDeviation="1 1"/></filter><filter id="aX" width="204%" height="204%" x="-42%" y="-42%" filterUnits="objectBoundingBox"><feGaussianBlur in="SourceGraphic" result="FeGaussianBlur2167Out" stdDeviation="4.24563419117647 0"/></filter><filter id="aY" width="54" height="132" x="168" y="61" filterUnits="userSpaceOnUse"><feOffset dy="3" in="SourceGraphic" result="FeOffset2180Out"/><feGaussianBlur in="FeOffset2180Out" result="FeGaussianBlur2181Out" stdDeviation="1.2 1.2"/></filter><mask id="b" width="2" height="2" x="-1" y="-1"><path fill="#fff" d="M30 32h188v188H30z"/><path d="M124 220c51.915 0 94-42.085 94-94s-42.085-94-94-94-94 42.085-94 94 42.085 94 94 94z"/></mask><mask id="d" width="2" height="2" x="-1" y="-1"><path fill="#fff" d="M30 32h188v188H30z"/><path d="M124 220c51.915 0 94-42.085 94-94s-42.085-94-94-94-94 42.085-94 94 42.085 94 94 94z"/></mask><mask id="f" width="2" height="2" x="-1" y="-1"><path fill="#fff" d="M30 32h188v188H30z"/><path d="M124 220c51.915 0 94-42.085 94-94s-42.085-94-94-94-94 42.085-94 94 42.085 94 94 94z"/></mask><mask id="h" width="2" height="2" x="-1" y="-1"><path fill="#fff" d="M30 32h188v188H30z"/><path d="M124 220c51.915 0 94-42.085 94-94s-42.085-94-94-94-94 42.085-94 94 42.085 94 94 94z"/></mask><mask id="k"><path fill="#fff" d="M124 220c51.915 0 94-42.085 94-94s-42.085-94-94-94-94 42.085-94 94 42.085 94 94 94z"/></mask><mask id="s"><path fill="#fff" d="M123.615 198.23c40.105 0 72.616-32.51 72.616-72.615C196.23 85.511 163.72 53 123.615 53 83.511 53 51 85.511 51 125.615c0 40.105 32.511 72.616 72.615 72.616z"/></mask><mask id="w" width="2" height="2" x="-1" y="-1"><path fill="#fff" d="M122 81h5v5h-5z"/><path d="M124.321 85.232a1.771 1.771 0 100-3.542 1.771 1.771 0 000 3.542z"/></mask><mask id="y" width="2" height="2" x="-1" y="-1"><path fill="#fff" d="M134 81h4v5h-4z"/><path d="M136.011 85.232a1.771 1.771 0 100-3.542 1.771 1.771 0 000 3.542z"/></mask><mask id="A" width="2" height="2" x="-1" y="-1"><path fill="#fff" d="M110 81h5v5h-5z"/><path d="M112.281 85.232a1.771 1.771 0 100-3.542 1.771 1.771 0 000 3.542z"/></mask><mask id="C" width="2" height="2" x="-1" y="-1"><path fill="#fff" d="M128 72h4v4h-4z"/><path d="M129.991 75.672a1.771 1.771 0 100-3.542 1.771 1.771 0 000 3.542z"/></mask><mask id="E" width="2" height="2" x="-1" y="-1"><path fill="#fff" d="M139 72h4v4h-4z"/><path d="M140.971 75.672a1.771 1.771 0 100-3.542 1.771 1.771 0 000 3.542z"/></mask><mask id="G" width="2" height="2" x="-1" y="-1"><path fill="#fff" d="M117 72h5v4h-5z"/><path d="M119.361 75.672a1.771 1.771 0 100-3.542 1.771 1.771 0 000 3.542z"/></mask><mask id="I" width="2" height="2" x="-1" y="-1"><path fill="#fff" d="M106 72h5v4h-5z"/><path d="M108.361 75.672a1.771 1.771 0 100-3.542 1.771 1.771 0 000 3.542z"/></mask><mask id="K" width="2" height="2" x="-1" y="-1"><path fill="#fff" d="M109 111h30v30h-30z"/><path d="M123.796 140.142c7.923 0 14.346-6.423 14.346-14.346s-6.423-14.346-14.346-14.346-14.346 6.423-14.346 14.346 6.423 14.346 14.346 14.346z"/></mask><mask id="L"><path fill="#fff" d="M123.796 140.142c7.923 0 14.346-6.423 14.346-14.346s-6.423-14.346-14.346-14.346-14.346 6.423-14.346 14.346 6.423 14.346 14.346 14.346z"/></mask><mask id="N"><path fill="#fff" d="M123.796 140.142c7.923 0 14.346-6.423 14.346-14.346s-6.423-14.346-14.346-14.346-14.346 6.423-14.346 14.346 6.423 14.346 14.346 14.346z"/></mask><mask id="P" width="2" height="2" x="-1" y="-1"><path fill="#fff" d="M127 92h65v106h-65z"/><path d="M191.578 102.158s-45.84 28.248-53.692 93.41l-10.58 1.545s-6.368-69.949 53.343-101.317l6.579-3.256z"/></mask><mask id="S" width="2" height="2" x="-1" y="-1"><path fill="#fff" d="M55 92h65v106H55z"/><path d="M55.15 102.158s45.84 28.248 53.692 93.41l10.58 1.545s6.368-69.949-53.343-101.317l-6.578-3.256z"/></mask><mask id="V" width="2" height="2" x="-1" y="-1"><path fill="#fff" d="M63 78h121v28H63z"/><path d="M92.15 42.158s45.84 28.248 53.692 93.41l10.58 1.545s6.368-69.949-53.343-101.317l-6.578-3.256z"/></mask><mask id="Y" width="2" height="2" x="-1" y="-1"><path fill="#fff" d="M84 148h4v4h-4z"/><path d="M86.213 151.895a1.783 1.783 0 100-3.565 1.783 1.783 0 000 3.565z"/></mask><mask id="aa" width="2" height="2" x="-1" y="-1"><path fill="#fff" d="M90 156h4v5h-4z"/><path d="M92.163 160.215a1.783 1.783 0 100-3.565 1.783 1.783 0 000 3.565z"/></mask><mask id="ac" width="2" height="2" x="-1" y="-1"><path fill="#fff" d="M96 165h4v4h-4z"/><path d="M98.103 168.535a1.783 1.783 0 100-3.565 1.783 1.783 0 000 3.565z"/></mask><mask id="ae" width="2" height="2" x="-1" y="-1"><path fill="#fff" d="M80 157h5v5h-5z"/><path d="M82.653 161.405a1.783 1.783 0 100-3.565 1.783 1.783 0 000 3.565z"/></mask><mask id="ag" width="2" height="2" x="-1" y="-1"><path fill="#fff" d="M74 149h5v5h-5z"/><path d="M76.713 153.085a1.783 1.783 0 100-3.565 1.783 1.783 0 000 3.565z"/></mask><mask id="ai" width="2" height="2" x="-1" y="-1"><path fill="#fff" d="M70 157h4v5h-4z"/><path d="M71.953 161.405a1.783 1.783 0 100-3.565 1.783 1.783 0 000 3.565z"/></mask><mask id="ak" width="2" height="2" x="-1" y="-1"><path fill="#fff" d="M63 148h4v4h-4z"/><path d="M64.823 151.895a1.783 1.783 0 100-3.565 1.783 1.783 0 000 3.565z"/></mask><mask id="am" width="2" height="2" x="-1" y="-1"><path fill="#fff" d="M76 167h4v4h-4z"/><path d="M77.903 170.905a1.783 1.783 0 100-3.565 1.783 1.783 0 000 3.565z"/></mask><mask id="ao" width="2" height="2" x="-1" y="-1"><path fill="#fff" d="M69 141h4v4h-4z"/><path d="M70.773 144.765a1.783 1.783 0 100-3.565 1.783 1.783 0 000 3.565z"/></mask><mask id="aq" width="2" height="2" x="-1" y="-1"><path fill="#fff" d="M86 166h5v4h-5z"/><path d="M88.593 169.725a1.783 1.783 0 100-3.565 1.783 1.783 0 000 3.565z"/></mask><mask id="as" width="2" height="2" x="-1" y="-1"><path fill="#fff" d="M92 174h5v4h-5z"/><path d="M94.533 178.035a1.783 1.783 0 100-3.565 1.783 1.783 0 000 3.565z"/></mask><mask id="au" width="2" height="2" x="-1" y="-1"><path fill="#fff" d="M159 148h5v4h-5z"/><path d="M170.363 151.895a1.783 1.783 0 100-3.565 1.783 1.783 0 000 3.565z"/></mask><mask id="aw" width="2" height="2" x="-1" y="-1"><path fill="#fff" d="M153 156h5v5h-5z"/><path d="M176.303 160.215a1.783 1.783 0 100-3.565 1.783 1.783 0 000 3.565z"/></mask><mask id="ay" width="2" height="2" x="-1" y="-1"><path fill="#fff" d="M148 165h4v4h-4z"/><path d="M182.243 168.535a1.783 1.783 0 100-3.565 1.783 1.783 0 000 3.565z"/></mask><mask id="aA" width="2" height="2" x="-1" y="-1"><path fill="#fff" d="M163 157h4v5h-4z"/><path d="M166.793 161.405a1.783 1.783 0 100-3.565 1.783 1.783 0 000 3.565z"/></mask><mask id="aC" width="2" height="2" x="-1" y="-1"><path fill="#fff" d="M169 149h4v5h-4z"/><path d="M160.853 153.085a1.783 1.783 0 100-3.565 1.783 1.783 0 000 3.565z"/></mask><mask id="aE" width="2" height="2" x="-1" y="-1"><path fill="#fff" d="M174 157h4v5h-4z"/><path d="M156.103 161.405a1.783 1.783 0 100-3.565 1.783 1.783 0 000 3.565z"/></mask><mask id="aG" width="2" height="2" x="-1" y="-1"><path fill="#fff" d="M181 148h4v4h-4z"/><path d="M148.973 151.895a1.783 1.783 0 100-3.565 1.783 1.783 0 000 3.565z"/></mask><mask id="aI" width="2" height="2" x="-1" y="-1"><path fill="#fff" d="M168 167h4v4h-4z"/><path d="M162.043 170.905a1.783 1.783 0 100-3.565 1.783 1.783 0 000 3.565z"/></mask><mask id="aK" width="2" height="2" x="-1" y="-1"><path fill="#fff" d="M175 141h4v4h-4z"/><path d="M154.913 144.765a1.783 1.783 0 100-3.565 1.783 1.783 0 000 3.565z"/></mask><mask id="aM" width="2" height="2" x="-1" y="-1"><path fill="#fff" d="M157 166h4v4h-4z"/><path d="M172.733 169.725a1.783 1.783 0 100-3.565 1.783 1.783 0 000 3.565z"/></mask><mask id="aO" width="2" height="2" x="-1" y="-1"><path fill="#fff" d="M151 174h5v4h-5z"/><path d="M178.683 178.035a1.783 1.783 0 100-3.565 1.783 1.783 0 000 3.565z"/></mask><mask id="aQ" width="2" height="2" x="-1" y="-1"><path fill="#fff" d="M57 57h134v93H57z"/><path d="M190.567 122.472a63.36 63.36 0 00-2.683-18.29C179.778 77.26 154.233 57.6 123.974 57.6c-29.451 0-54.437 18.624-63.224 44.44a63.283 63.283 0 00-3.37 20.432c0 35.828 133.187 35.828 133.187 0z"/></mask><mask id="aT"><path fill="#fff" d="M190.567 122.472a63.36 63.36 0 00-2.683-18.29C179.778 77.26 154.233 57.6 123.974 57.6c-29.451 0-54.437 18.624-63.224 44.44a63.283 63.283 0 00-3.37 20.432c0 35.828 133.187 35.828 133.187 0z"/></mask><linearGradient id="i" x1="64.15" x2="169.87" y1="48.66" y2="210.36" gradientUnits="userSpaceOnUse"><stop offset="0" stop-color="#f7f8fa"/><stop offset="1" stop-color="#d3d6dd"/></linearGradient><linearGradient id="n" x1="121.64" x2="124" y1="205.33" y2="46.67" gradientUnits="userSpaceOnUse"><stop offset="0" stop-color="#ecebf2"/><stop offset="1" stop-color="#d3d1da"/></linearGradient><linearGradient id="p" x1="121.64" x2="124" y1="205.33" y2="46.67" gradientUnits="userSpaceOnUse"><stop offset="0" stop-color="#ecebf2"/><stop offset="1" stop-color="#d3d1da"/></linearGradient><linearGradient id="q" x1="139.25" x2="95.22" y1="194.47" y2="62.13" gradientUnits="userSpaceOnUse"><stop offset="0" stop-color="#565e6f"/><stop offset="1" stop-color="#3a4050"/></linearGradient><linearGradient id="Q" x1="127.11" x2="184.05" y1="92.54" y2="197.11" gradientUnits="userSpaceOnUse"><stop offset="0" stop-color="#bbc1cf" stop-opacity=".3"/><stop offset=".53" stop-color="#dbdbec"/><stop offset="1" stop-color="#bbc1cf" stop-opacity=".25"/></linearGradient><linearGradient id="T" x1="55.15" x2="112.09" y1="92.54" y2="197.11" gradientUnits="userSpaceOnUse"><stop offset="0" stop-color="#bbc1cf" stop-opacity=".3"/><stop offset=".53" stop-color="#dbdbec"/><stop offset="1" stop-color="#bbc1cf" stop-opacity=".25"/></linearGradient><linearGradient id="W" x1="96.03" x2="154.85" y1="32.54" y2="137.11" gradientUnits="userSpaceOnUse"><stop offset="0" stop-color="#bbc1cf" stop-opacity=".3"/><stop offset=".5" stop-color="#dddef1"/><stop offset="1" stop-color="#bbc1cf" stop-opacity=".25"/></linearGradient><linearGradient id="aR" x1="123.97" x2="123.97" y1="60.36" y2="149.35" gradientUnits="userSpaceOnUse"><stop offset="0" stop-color="#a1a4a8"/><stop offset="1" stop-color="#6b6974" stop-opacity=".29"/></linearGradient><linearGradient id="aV" x1="77.4" x2="117.59" y1="91.65" y2="66.11" gradientUnits="userSpaceOnUse"><stop offset="0" stop-color="#fff" stop-opacity="0"/><stop offset="1" stop-color="#fff"/></linearGradient><clipPath id="l"><path fill="#fff" d="M124 220c51.915 0 94-42.085 94-94s-42.085-94-94-94-94 42.085-94 94 42.085 94 94 94z"/></clipPath><clipPath id="t"><path fill="#fff" d="M123.615 198.23c40.105 0 72.616-32.51 72.616-72.615C196.23 85.511 163.72 53 123.615 53 83.511 53 51 85.511 51 125.615c0 40.105 32.511 72.616 72.615 72.616z"/></clipPath><clipPath id="u"><path fill="#fff" d="M50 200V52h148v148zm73.615-1.77c40.105 0 72.616-32.51 72.616-72.615C196.23 85.511 163.72 53 123.615 53 83.511 53 51 85.511 51 125.615c0 40.105 32.511 72.616 72.615 72.616z"/></clipPath></defs><g filter="url(#a)"><path fill="none" d="M124 220c51.915 0 94-42.085 94-94s-42.085-94-94-94-94 42.085-94 94 42.085 94 94 94z" mask="url(&quot;#b&quot;)"/><path fill="#7682b6" fill-opacity=".15" d="M124 220c51.915 0 94-42.085 94-94s-42.085-94-94-94-94 42.085-94 94 42.085 94 94 94z"/></g><g filter="url(#c)"><path fill="none" d="M124 220c51.915 0 94-42.085 94-94s-42.085-94-94-94-94 42.085-94 94 42.085 94 94 94z" mask="url(&quot;#d&quot;)"/><path fill="#7c88b8" fill-opacity=".51" d="M124 220c51.915 0 94-42.085 94-94s-42.085-94-94-94-94 42.085-94 94 42.085 94 94 94z"/></g><g filter="url(#e)"><path fill="none" d="M124 220c51.915 0 94-42.085 94-94s-42.085-94-94-94-94 42.085-94 94 42.085 94 94 94z" mask="url(&quot;#f&quot;)"/><path fill="#fff" fill-opacity=".51" d="M124 220c51.915 0 94-42.085 94-94s-42.085-94-94-94-94 42.085-94 94 42.085 94 94 94z"/></g><g filter="url(#g)"><path fill="none" d="M124 220c51.915 0 94-42.085 94-94s-42.085-94-94-94-94 42.085-94 94 42.085 94 94 94z" mask="url(&quot;#h&quot;)"/><path fill="#979cae" fill-opacity=".38" d="M124 220c51.915 0 94-42.085 94-94s-42.085-94-94-94-94 42.085-94 94 42.085 94 94 94z"/></g><path fill="url(#i)" d="M124 220c51.915 0 94-42.085 94-94s-42.085-94-94-94-94 42.085-94 94 42.085 94 94 94z"/><path fill="#fff" fill-opacity=".96" d="M22 228V24h204v204zm106-4c51.915 0 94-42.085 94-94s-42.085-94-94-94-94 42.085-94 94 42.085 94 94 94z" filter="url(#j)" mask="url(&quot;#k&quot;)"/><path fill="none" stroke="#fff" stroke-miterlimit="20" stroke-opacity=".54" d="M124 220c51.915 0 94-42.085 94-94s-42.085-94-94-94-94 42.085-94 94 42.085 94 94 94z" clip-path="url(&quot;#l&quot;)"/><g filter="url(#m)"><path fill="url(#n)" d="M123.997 205.324c43.81 0 79.327-35.516 79.327-79.327S167.808 46.67 123.997 46.67 44.67 82.186 44.67 125.997c0 43.81 35.516 79.327 79.327 79.327z"/></g><g filter="url(#o)"><path fill="url(#p)" d="M123.997 205.324c43.81 0 79.327-35.516 79.327-79.327S167.808 46.67 123.997 46.67 44.67 82.186 44.67 125.997c0 43.81 35.516 79.327 79.327 79.327z"/></g><path fill="url(#q)" d="M123.615 198.23c40.105 0 72.616-32.51 72.616-72.615C196.23 85.511 163.72 53 123.615 53 83.511 53 51 85.511 51 125.615c0 40.105 32.511 72.616 72.615 72.616z"/><path fill="#14141d" fill-opacity=".83" d="M1 242V10h246v232zm135.615-37.77c40.105 0 72.616-32.51 72.616-72.615C209.23 91.511 176.72 59 136.615 59 96.511 59 64 91.511 64 131.615c0 40.105 32.511 72.616 72.615 72.616z" filter="url(#r)" mask="url(&quot;#s&quot;)"/><path fill="none" stroke="#000" stroke-miterlimit="20" stroke-width="2" d="M123.615 198.23c40.105 0 72.616-32.51 72.616-72.615C196.23 85.511 163.72 53 123.615 53 83.511 53 51 85.511 51 125.615c0 40.105 32.511 72.616 72.615 72.616z" clip-path="url(&quot;#t&quot;)"/><path fill="none" stroke="#fff" stroke-miterlimit="20" stroke-opacity=".24" stroke-width="2" d="M123.615 198.23c40.105 0 72.616-32.51 72.616-72.615C196.23 85.511 163.72 53 123.615 53 83.511 53 51 85.511 51 125.615c0 40.105 32.511 72.616 72.615 72.616z" clip-path="url(&quot;#u&quot;)"/><g opacity=".85"><g filter="url(#v)"><path fill="none" d="M124.321 85.232a1.771 1.771 0 100-3.542 1.771 1.771 0 000 3.542z" mask="url(&quot;#w&quot;)"/><path fill="#fff" fill-opacity=".1" d="M124.321 85.232a1.771 1.771 0 100-3.542 1.771 1.771 0 000 3.542z"/></g><path fill="#1a1923" d="M124.321 85.232a1.771 1.771 0 100-3.542 1.771 1.771 0 000 3.542z"/></g><g opacity=".85"><g filter="url(#x)"><path fill="none" d="M136.011 85.232a1.771 1.771 0 100-3.542 1.771 1.771 0 000 3.542z" mask="url(&quot;#y&quot;)"/><path fill="#fff" fill-opacity=".1" d="M136.011 85.232a1.771 1.771 0 100-3.542 1.771 1.771 0 000 3.542z"/></g><path fill="#1a1923" d="M136.011 85.232a1.771 1.771 0 100-3.542 1.771 1.771 0 000 3.542z"/></g><g opacity=".85"><g filter="url(#z)"><path fill="none" d="M112.281 85.232a1.771 1.771 0 100-3.542 1.771 1.771 0 000 3.542z" mask="url(&quot;#A&quot;)"/><path fill="#fff" fill-opacity=".1" d="M112.281 85.232a1.771 1.771 0 100-3.542 1.771 1.771 0 000 3.542z"/></g><path fill="#1a1923" d="M112.281 85.232a1.771 1.771 0 100-3.542 1.771 1.771 0 000 3.542z"/></g><g opacity=".85"><g filter="url(#B)"><path fill="none" d="M129.991 75.672a1.771 1.771 0 100-3.542 1.771 1.771 0 000 3.542z" mask="url(&quot;#C&quot;)"/><path fill="#fff" fill-opacity=".1" d="M129.991 75.672a1.771 1.771 0 100-3.542 1.771 1.771 0 000 3.542z"/></g><path fill="#1a1923" d="M129.991 75.672a1.771 1.771 0 100-3.542 1.771 1.771 0 000 3.542z"/></g><g opacity=".85"><g filter="url(#D)"><path fill="none" d="M140.971 75.672a1.771 1.771 0 100-3.542 1.771 1.771 0 000 3.542z" mask="url(&quot;#E&quot;)"/><path fill="#fff" fill-opacity=".1" d="M140.971 75.672a1.771 1.771 0 100-3.542 1.771 1.771 0 000 3.542z"/></g><path fill="#1a1923" d="M140.971 75.672a1.771 1.771 0 100-3.542 1.771 1.771 0 000 3.542z"/></g><g opacity=".85"><g filter="url(#F)"><path fill="none" d="M119.361 75.672a1.771 1.771 0 100-3.542 1.771 1.771 0 000 3.542z" mask="url(&quot;#G&quot;)"/><path fill="#fff" fill-opacity=".1" d="M119.361 75.672a1.771 1.771 0 100-3.542 1.771 1.771 0 000 3.542z"/></g><path fill="#1a1923" d="M119.361 75.672a1.771 1.771 0 100-3.542 1.771 1.771 0 000 3.542z"/></g><g opacity=".85"><g filter="url(#H)"><path fill="none" d="M108.361 75.672a1.771 1.771 0 100-3.542 1.771 1.771 0 000 3.542z" mask="url(&quot;#I&quot;)"/><path fill="#fff" fill-opacity=".1" d="M108.361 75.672a1.771 1.771 0 100-3.542 1.771 1.771 0 000 3.542z"/></g><path fill="#1a1923" d="M108.361 75.672a1.771 1.771 0 100-3.542 1.771 1.771 0 000 3.542z"/></g><g filter="url(#J)"><path fill="none" d="M123.796 140.142c7.923 0 14.346-6.423 14.346-14.346s-6.423-14.346-14.346-14.346-14.346 6.423-14.346 14.346 6.423 14.346 14.346 14.346z" mask="url(&quot;#K&quot;)"/><path fill-opacity=".58" d="M123.796 140.142c7.923 0 14.346-6.423 14.346-14.346s-6.423-14.346-14.346-14.346-14.346 6.423-14.346 14.346 6.423 14.346 14.346 14.346z"/></g><g mask="url(&quot;#L&quot;)"><path fill="rgba(93,99,112,1)" d="M124 126l31 1a31 31 0 000-1z"/><path fill="rgba(89,94,107,1)" d="M124 126l30.978 1.54a31 31 0 00.017-.999z"/><path fill="rgba(84,90,103,1)" d="M124 126l30.946 2.081a31 31 0 00.035-1z"/><path fill="rgba(80,85,98,1)" d="M124 126l30.905 2.621a31 31 0 00.053-.999z"/><path fill="rgba(80,85,98,1)" d="M124 126l30.855 3.16a31 31 0 00.07-.998z"/><path fill="rgba(81,86,99,1)" d="M124 126l30.795 3.698a31 31 0 00.087-.996z"/><path fill="rgba(81,86,99,1)" d="M124 126l30.726 4.235a31 31 0 00.104-.995z"/><path fill="rgba(81,86,99,1)" d="M124 126l30.647 4.77a31 31 0 00.122-.992z"/><path fill="rgba(81,86,99,1)" d="M124 126l30.56 5.305a31 31 0 00.138-.99z"/><path fill="rgba(82,87,100,1)" d="M124 126l30.462 5.837a31 31 0 00.156-.988z"/><path fill="rgba(82,87,100,1)" d="M124 126l30.355 6.368a31 31 0 00.174-.985z"/><path fill="rgba(82,87,100,1)" d="M124 126l30.24 6.897a31 31 0 00.19-.982z"/><path fill="rgba(82,87,101,1)" d="M124 126l30.115 7.423a31 31 0 00.208-.978z"/><path fill="rgba(83,88,101,1)" d="M124 126l29.98 7.948a31 31 0 00.225-.975z"/><path fill="rgba(83,88,101,1)" d="M124 126l29.837 8.47a31 31 0 00.242-.97z"/><path fill="rgba(83,88,102,1)" d="M124 126l29.685 8.99a31 31 0 00.259-.967z"/><path fill="rgba(83,89,102,1)" d="M124 126l29.523 9.506a31 31 0 00.276-.961z"/><path fill="rgba(84,89,102,1)" d="M124 126l29.353 10.02a31 31 0 00.292-.956z"/><path fill="rgba(84,89,102,1)" d="M124 126l29.174 10.53a31 31 0 00.309-.95z"/><path fill="rgba(84,89,103,1)" d="M124 126l28.986 11.038a31 31 0 00.325-.945z"/><path fill="rgba(84,90,103,1)" d="M124 126l28.788 11.542a31 31 0 00.342-.94z"/><path fill="rgba(85,90,103,1)" d="M124 126l28.583 12.043a31 31 0 00.358-.934z"/><path fill="rgba(85,90,104,1)" d="M124 126l28.368 12.54a31 31 0 00.375-.927z"/><path fill="rgba(85,91,104,1)" d="M124 126l28.145 13.033a31 31 0 00.39-.92z"/><path fill="rgba(85,91,104,1)" d="M124 126l27.913 13.522a31 31 0 00.407-.913z"/><path fill="rgba(86,91,104,1)" d="M124 126l27.673 14.007a31 31 0 00.423-.906z"/><path fill="rgba(86,91,105,1)" d="M124 126l27.424 14.488a31 31 0 00.439-.898z"/><path fill="rgba(86,92,105,1)" d="M124 126l27.167 14.965a31 31 0 00.454-.891z"/><path fill="rgba(86,92,105,1)" d="M124 126l26.902 15.437a31 31 0 00.47-.883z"/><path fill="rgba(87,92,106,1)" d="M124 126l26.628 15.904a31 31 0 00.485-.875z"/><path fill="rgba(87,92,106,1)" d="M124 126l26.347 16.366a31 31 0 00.5-.866z"/><path fill="rgba(87,93,106,1)" d="M124 126l26.057 16.823a31 31 0 00.515-.857z"/><path fill="rgba(88,93,107,1)" d="M124 126l25.76 17.276a31 31 0 00.53-.849z"/><path fill="rgba(88,93,107,1)" d="M124 126l25.454 17.722a31 31 0 00.545-.838z"/><path fill="rgba(88,94,107,1)" d="M124 126l25.141 18.164a31 31 0 00.56-.829z"/><path fill="rgba(88,94,107,1)" d="M124 126l24.82 18.6a31 31 0 00.574-.82z"/><path fill="rgba(89,94,108,1)" d="M124 126l24.492 19.03a31 31 0 00.588-.809z"/><path fill="rgba(89,94,108,1)" d="M124 126l24.156 19.455a31 31 0 00.602-.799z"/><path fill="rgba(89,95,108,1)" d="M124 126l23.813 19.874a31 31 0 00.615-.788z"/><path fill="rgba(89,95,109,1)" d="M124 126l23.462 20.286a31 31 0 00.63-.777z"/><path fill="rgba(90,95,109,1)" d="M124 126l23.105 20.692a31 31 0 00.642-.766z"/><path fill="rgba(90,95,109,1)" d="M124 126l22.74 21.093a31 31 0 00.656-.755z"/><path fill="rgba(90,96,109,1)" d="M124 126l22.368 21.486a31 31 0 00.67-.743z"/><path fill="rgba(90,96,110,1)" d="M124 126l21.99 21.873a31 31 0 00.682-.731z"/><path fill="rgba(91,96,110,1)" d="M124 126l21.605 22.254a31 31 0 00.695-.72z"/><path fill="rgba(91,97,110,1)" d="M124 126l21.213 22.627a31 31 0 00.707-.707z"/><path fill="rgba(91,97,111,1)" d="M124 126l20.815 22.994a31 31 0 00.72-.694z"/><path fill="rgba(91,97,111,1)" d="M124 126l20.41 23.354a31 31 0 00.732-.682z"/><path fill="rgba(92,97,111,1)" d="M124 126l20 23.707a31 31 0 00.743-.67z"/><path fill="rgba(92,98,111,1)" d="M124 126l19.583 24.052a31 31 0 00.755-.656z"/><path fill="rgba(92,98,112,1)" d="M124 126l19.16 24.39a31 31 0 00.766-.643z"/><path fill="rgba(92,98,112,1)" d="M124 126l18.732 24.72a31 31 0 00.777-.628z"/><path fill="rgba(93,99,112,1)" d="M124 126l18.297 25.044a31 31 0 00.789-.616z"/><path fill="rgba(93,99,113,1)" d="M124 126l17.858 25.36a31 31 0 00.798-.602z"/><path fill="rgba(93,99,113,1)" d="M124 126l17.412 25.667a31 31 0 00.81-.587z"/><path fill="rgba(93,99,113,1)" d="M124 126l16.962 25.967a31 31 0 00.819-.573z"/><path fill="rgba(94,100,114,1)" d="M124 126l16.506 26.26a31 31 0 00.829-.56z"/><path fill="rgba(94,100,114,1)" d="M124 126l16.045 26.543a31 31 0 00.839-.544z"/><path fill="rgba(94,100,114,1)" d="M124 126l15.58 26.82a31 31 0 00.847-.53z"/><path fill="rgba(94,100,114,1)" d="M124 126l15.109 27.087a31 31 0 00.857-.515z"/><path fill="rgba(95,101,115,1)" d="M124 126l14.634 27.347a31 31 0 00.866-.5z"/><path fill="rgba(95,101,115,1)" d="M124 126l14.154 27.598a31 31 0 00.875-.485z"/><path fill="rgba(95,101,116,1)" d="M124 126l13.67 27.84a31 31 0 00.884-.469z"/><path fill="rgba(96,102,116,1)" d="M124 126l13.183 28.075a31 31 0 00.89-.454z"/><path fill="rgba(96,102,117,1)" d="M124 126l12.69 28.301a31 31 0 00.9-.438z"/><path fill="rgba(96,102,117,1)" d="M124 126l12.195 28.518a31 31 0 00.906-.422z"/><path fill="rgba(95,101,116,1)" d="M124 126l11.695 28.727a31 31 0 00.914-.407z"/><path fill="rgba(95,101,116,1)" d="M124 126l11.192 28.926a31 31 0 00.92-.39z"/><path fill="rgba(95,101,116,1)" d="M124 126l10.686 29.117a31 31 0 00.927-.374z"/><path fill="rgba(95,101,115,1)" d="M124 126l10.176 29.3a31 31 0 00.933-.359z"/><path fill="rgba(94,100,115,1)" d="M124 126l9.663 29.472a31 31 0 00.94-.342z"/><path fill="rgba(94,100,115,1)" d="M124 126l9.147 29.637a31 31 0 00.946-.326z"/><path fill="rgba(94,100,115,1)" d="M124 126l8.628 29.792a31 31 0 00.952-.31z"/><path fill="rgba(94,100,114,1)" d="M124 126l8.107 29.938a31 31 0 00.957-.293z"/><path fill="rgba(93,99,114,1)" d="M124 126l7.583 30.075a31 31 0 00.962-.276z"/><path fill="rgba(93,99,114,1)" d="M124 126l7.057 30.203a31 31 0 00.966-.26z"/><path fill="rgba(93,99,113,1)" d="M124 126l6.53 30.321a31 31 0 00.97-.242z"/><path fill="rgba(93,98,113,1)" d="M124 126l6 30.43a31 31 0 00.973-.225z"/><path fill="rgba(92,98,113,1)" d="M124 126l5.467 30.53a31 31 0 00.978-.207z"/><path fill="rgba(92,98,112,1)" d="M124 126l4.933 30.621a31 31 0 00.982-.19z"/><path fill="rgba(92,98,112,1)" d="M124 126l4.398 30.703a31 31 0 00.985-.174z"/><path fill="rgba(92,97,112,1)" d="M124 126l3.862 30.775a31 31 0 00.987-.157z"/><path fill="rgba(91,97,111,1)" d="M124 126l3.324 30.837a31 31 0 00.99-.139z"/><path fill="rgba(91,97,111,1)" d="M124 126l2.785 30.89a31 31 0 00.993-.121z"/><path fill="rgba(91,97,111,1)" d="M124 126l2.246 30.935a31 31 0 00.994-.105z"/><path fill="rgba(91,96,111,1)" d="M124 126l1.706 30.97a31 31 0 00.996-.088z"/><path fill="rgba(90,96,110,1)" d="M124 126l1.165 30.994a31 31 0 00.997-.07z"/><path fill="rgba(90,96,110,1)" d="M124 126l.624 31.01a31 31 0 00.998-.052z"/><path fill="rgba(90,95,110,1)" d="M124 126l.082 31.016a31 31 0 001-.035z"/><path fill="rgba(90,95,109,1)" d="M124 126l-.459 31.013a31 31 0 001-.018z"/><path fill="rgba(89,95,109,1)" d="M124 126l-1 31a31 31 0 001 0z"/><path fill="rgba(89,95,109,1)" d="M124 126l-1.54 30.978a31 31 0 00.999.017z"/><path fill="rgba(89,94,108,1)" d="M124 126l-2.081 30.946a31 31 0 001 .035z"/><path fill="rgba(89,94,108,1)" d="M124 126l-2.621 30.905a31 31 0 00.999.053z"/><path fill="rgba(88,94,108,1)" d="M124 126l-3.16 30.855a31 31 0 00.998.07z"/><path fill="rgba(88,94,108,1)" d="M124 126l-3.698 30.795a31 31 0 00.996.087z"/><path fill="rgba(88,93,107,1)" d="M124 126l-4.235 30.726a31 31 0 00.995.104z"/><path fill="rgba(87,93,107,1)" d="M124 126l-4.77 30.647a31 31 0 00.992.122z"/><path fill="rgba(87,93,107,1)" d="M124 126l-5.305 30.56a31 31 0 00.99.138z"/><path fill="rgba(87,92,106,1)" d="M124 126l-5.837 30.462a31 31 0 00.988.156z"/><path fill="rgba(87,92,106,1)" d="M124 126l-6.368 30.355a31 31 0 00.985.174z"/><path fill="rgba(86,92,106,1)" d="M124 126l-6.897 30.24a31 31 0 00.982.19z"/><path fill="rgba(86,92,105,1)" d="M124 126l-7.423 30.115a31 31 0 00.978.208z"/><path fill="rgba(86,91,105,1)" d="M124 126l-7.948 29.98a31 31 0 00.975.225z"/><path fill="rgba(86,91,105,1)" d="M124 126l-8.47 29.837a31 31 0 00.97.242z"/><path fill="rgba(85,91,104,1)" d="M124 126l-8.99 29.685a31 31 0 00.967.259z"/><path fill="rgba(85,90,104,1)" d="M124 126l-9.506 29.523a31 31 0 00.961.276z"/><path fill="rgba(85,90,104,1)" d="M124 126l-10.02 29.353a31 31 0 00.956.292z"/><path fill="rgba(85,90,104,1)" d="M124 126l-10.53 29.174a31 31 0 00.95.309z"/><path fill="rgba(84,90,103,1)" d="M124 126l-11.038 28.986a31 31 0 00.945.325z"/><path fill="rgba(84,89,103,1)" d="M124 126l-11.542 28.788a31 31 0 00.94.342z"/><path fill="rgba(84,89,103,1)" d="M124 126l-12.043 28.583a31 31 0 00.934.358z"/><path fill="rgba(84,89,102,1)" d="M124 126l-12.54 28.368a31 31 0 00.927.375z"/><path fill="rgba(83,89,102,1)" d="M124 126l-13.033 28.145a31 31 0 00.92.39z"/><path fill="rgba(83,88,102,1)" d="M124 126l-13.522 27.913a31 31 0 00.913.407z"/><path fill="rgba(83,88,101,1)" d="M124 126l-14.007 27.673a31 31 0 00.906.423z"/><path fill="rgba(83,88,101,1)" d="M124 126l-14.488 27.424a31 31 0 00.898.439z"/><path fill="rgba(82,87,101,1)" d="M124 126l-14.965 27.167a31 31 0 00.891.454z"/><path fill="rgba(82,87,100,1)" d="M124 126l-15.437 26.902a31 31 0 00.883.47z"/><path fill="rgba(82,87,100,1)" d="M124 126l-15.904 26.628a31 31 0 00.875.485z"/><path fill="rgba(82,87,100,1)" d="M124 126l-16.366 26.347a31 31 0 00.866.5z"/><path fill="rgba(81,86,100,1)" d="M124 126l-16.823 26.057a31 31 0 00.857.515z"/><path fill="rgba(81,86,99,1)" d="M124 126l-17.276 25.76a31 31 0 00.849.53z"/><path fill="rgba(81,86,99,1)" d="M124 126l-17.722 25.454a31 31 0 00.838.545z"/><path fill="rgba(81,86,99,1)" d="M124 126l-18.164 25.141a31 31 0 00.829.56z"/><path fill="rgba(80,85,98,1)" d="M124 126l-18.6 24.82a31 31 0 00.82.574z"/><path fill="rgba(80,85,98,1)" d="M124 126l-19.03 24.492a31 31 0 00.809.588z"/><path fill="rgba(81,86,99,1)" d="M124 126l-19.455 24.156a31 31 0 00.799.602z"/><path fill="rgba(81,86,99,1)" d="M124 126l-19.874 23.813a31 31 0 00.788.615z"/><path fill="rgba(82,87,100,1)" d="M124 126l-20.286 23.462a31 31 0 00.777.63z"/><path fill="rgba(83,88,101,1)" d="M124 126l-20.692 23.105a31 31 0 00.766.642z"/><path fill="rgba(84,89,102,1)" d="M124 126l-21.093 22.74a31 31 0 00.755.656z"/><path fill="rgba(84,89,102,1)" d="M124 126l-21.486 22.368a31 31 0 00.743.67z"/><path fill="rgba(85,90,103,1)" d="M124 126l-21.873 21.99a31 31 0 00.731.682z"/><path fill="rgba(86,91,104,1)" d="M124 126l-22.254 21.605a31 31 0 00.72.695z"/><path fill="rgba(86,91,105,1)" d="M124 126l-22.627 21.213a31 31 0 00.707.707z"/><path fill="rgba(87,92,105,1)" d="M124 126l-22.994 20.815a31 31 0 00.694.72z"/><path fill="rgba(88,93,106,1)" d="M124 126l-23.354 20.41a31 31 0 00.682.732z"/><path fill="rgba(88,93,107,1)" d="M124 126l-23.707 20a31 31 0 00.67.743z"/><path fill="rgba(89,94,108,1)" d="M124 126l-24.052 19.583a31 31 0 00.656.755z"/><path fill="rgba(90,95,108,1)" d="M124 126l-24.39 19.16a31 31 0 00.643.766z"/><path fill="rgba(91,96,109,1)" d="M124 126l-24.72 18.732a31 31 0 00.628.777z"/><path fill="rgba(91,96,110,1)" d="M124 126l-25.044 18.297a31 31 0 00.616.789z"/><path fill="rgba(92,97,111,1)" d="M124 126l-25.36 17.858a31 31 0 00.602.798z"/><path fill="rgba(93,98,111,1)" d="M124 126l-25.667 17.412a31 31 0 00.587.81z"/><path fill="rgba(93,98,112,1)" d="M124 126l-25.967 16.962a31 31 0 00.573.819z"/><path fill="rgba(94,99,113,1)" d="M124 126l-26.26 16.506a31 31 0 00.56.829z"/><path fill="rgba(95,100,113,1)" d="M124 126l-26.543 16.045a31 31 0 00.544.839z"/><path fill="rgba(96,101,114,1)" d="M124 126l-26.82 15.58a31 31 0 00.53.847z"/><path fill="rgba(96,101,115,1)" d="M124 126l-27.087 15.109a31 31 0 00.515.857z"/><path fill="rgba(97,102,116,1)" d="M124 126l-27.347 14.634a31 31 0 00.5.866z"/><path fill="rgba(98,103,116,1)" d="M124 126l-27.598 14.154a31 31 0 00.485.875z"/><path fill="rgba(98,103,117,1)" d="M124 126l-27.84 13.67a31 31 0 00.469.884z"/><path fill="rgba(99,104,118,1)" d="M124 126l-28.075 13.183a31 31 0 00.454.89z"/><path fill="rgba(100,105,119,1)" d="M124 126l-28.301 12.69a31 31 0 00.438.9z"/><path fill="rgba(100,105,119,1)" d="M124 126l-28.518 12.195a31 31 0 00.422.906z"/><path fill="rgba(101,106,120,1)" d="M124 126l-28.727 11.695a31 31 0 00.407.914z"/><path fill="rgba(102,107,121,1)" d="M124 126l-28.926 11.192a31 31 0 00.39.92z"/><path fill="rgba(103,108,122,1)" d="M124 126l-29.117 10.686a31 31 0 00.374.927z"/><path fill="rgba(103,108,122,1)" d="M124 126l-29.3 10.176a31 31 0 00.359.933z"/><path fill="rgba(104,109,123,1)" d="M124 126l-29.472 9.663a31 31 0 00.342.94z"/><path fill="rgba(105,110,124,1)" d="M124 126l-29.637 9.147a31 31 0 00.326.946z"/><path fill="rgba(105,110,125,1)" d="M124 126l-29.792 8.628a31 31 0 00.31.952z"/><path fill="rgba(106,111,125,1)" d="M124 126l-29.938 8.107a31 31 0 00.293.957z"/><path fill="rgba(107,112,126,1)" d="M124 126l-30.075 7.583a31 31 0 00.276.962z"/><path fill="rgba(107,112,127,1)" d="M124 126l-30.203 7.057a31 31 0 00.26.966z"/><path fill="rgba(108,113,128,1)" d="M124 126l-30.321 6.53a31 31 0 00.242.97z"/><path fill="rgba(109,114,128,1)" d="M124 126l-30.43 6a31 31 0 00.225.973z"/><path fill="rgba(110,115,129,1)" d="M124 126l-30.53 5.467a31 31 0 00.207.978z"/><path fill="rgba(110,115,130,1)" d="M124 126l-30.621 4.933a31 31 0 00.19.982z"/><path fill="rgba(111,116,130,1)" d="M124 126l-30.703 4.398a31 31 0 00.174.985z"/><path fill="rgba(112,117,131,1)" d="M124 126l-30.775 3.862a31 31 0 00.157.987z"/><path fill="rgba(112,117,132,1)" d="M124 126l-30.837 3.324a31 31 0 00.139.99z"/><path fill="rgba(113,118,133,1)" d="M124 126l-30.89 2.785a31 31 0 00.121.993z"/><path fill="rgba(114,119,133,1)" d="M124 126l-30.935 2.246a31 31 0 00.105.994z"/><path fill="rgba(115,120,134,1)" d="M124 126l-30.97 1.706a31 31 0 00.088.996z"/><path fill="rgba(115,120,135,1)" d="M124 126l-30.994 1.165a31 31 0 00.07.997z"/><path fill="rgba(116,121,136,1)" d="M124 126l-31.01.624a31 31 0 00.052.998z"/><path fill="rgba(117,122,136,1)" d="M124 126l-31.016.082a31 31 0 00.035 1z"/><path fill="rgba(117,122,137,1)" d="M124 126l-31.013-.459a31 31 0 00.018 1z"/><path fill="rgba(118,123,138,1)" d="M124 126l-31-1a31 31 0 000 1z"/><path fill="rgba(119,124,139,1)" d="M124 126l-30.978-1.54a31 31 0 00-.017.999z"/><path fill="rgba(119,124,139,1)" d="M124 126l-30.946-2.081a31 31 0 00-.035 1z"/><path fill="rgba(120,125,140,1)" d="M124 126l-30.905-2.621a31 31 0 00-.053.999z"/><path fill="rgba(121,126,141,1)" d="M124 126l-30.855-3.16a31 31 0 00-.07.998z"/><path fill="rgba(122,127,142,1)" d="M124 126l-30.795-3.698a31 31 0 00-.087.996z"/><path fill="rgba(122,127,142,1)" d="M124 126l-30.726-4.235a31 31 0 00-.104.995z"/><path fill="rgba(123,128,143,1)" d="M124 126l-30.647-4.77a31 31 0 00-.122.992z"/><path fill="rgba(122,127,142,1)" d="M124 126l-30.56-5.305a31 31 0 00-.138.99z"/><path fill="rgba(121,126,141,1)" d="M124 126l-30.462-5.837a31 31 0 00-.156.988z"/><path fill="rgba(120,125,140,1)" d="M124 126l-30.355-6.368a31 31 0 00-.174.985z"/><path fill="rgba(120,125,139,1)" d="M124 126l-30.24-6.897a31 31 0 00-.19.982z"/><path fill="rgba(119,124,139,1)" d="M124 126l-30.115-7.423a31 31 0 00-.208.978z"/><path fill="rgba(118,123,138,1)" d="M124 126l-29.98-7.948a31 31 0 00-.225.975z"/><path fill="rgba(117,122,137,1)" d="M124 126l-29.837-8.47a31 31 0 00-.242.97z"/><path fill="rgba(116,121,136,1)" d="M124 126l-29.685-8.99a31 31 0 00-.259.967z"/><path fill="rgba(115,120,135,1)" d="M124 126l-29.523-9.506a31 31 0 00-.276.961z"/><path fill="rgba(114,119,134,1)" d="M124 126l-29.353-10.02a31 31 0 00-.292.956z"/><path fill="rgba(114,119,133,1)" d="M124 126l-29.174-10.53a31 31 0 00-.309.95z"/><path fill="rgba(113,118,132,1)" d="M124 126l-28.986-11.038a31 31 0 00-.325.945z"/><path fill="rgba(112,117,131,1)" d="M124 126l-28.788-11.542a31 31 0 00-.342.94z"/><path fill="rgba(111,116,130,1)" d="M124 126l-28.583-12.043a31 31 0 00-.358.934z"/><path fill="rgba(110,115,130,1)" d="M124 126l-28.368-12.54a31 31 0 00-.375.927z"/><path fill="rgba(109,114,129,1)" d="M124 126l-28.145-13.033a31 31 0 00-.39.92z"/><path fill="rgba(108,113,128,1)" d="M124 126l-27.913-13.522a31 31 0 00-.407.913z"/><path fill="rgba(108,113,127,1)" d="M124 126l-27.673-14.007a31 31 0 00-.423.906z"/><path fill="rgba(107,112,126,1)" d="M124 126l-27.424-14.488a31 31 0 00-.439.898z"/><path fill="rgba(106,111,125,1)" d="M124 126l-27.167-14.965a31 31 0 00-.454.891z"/><path fill="rgba(105,110,124,1)" d="M124 126l-26.902-15.437a31 31 0 00-.47.883z"/><path fill="rgba(104,109,123,1)" d="M124 126l-26.628-15.904a31 31 0 00-.485.875z"/><path fill="rgba(103,108,122,1)" d="M124 126l-26.347-16.366a31 31 0 00-.5.866z"/><path fill="rgba(102,107,121,1)" d="M124 126l-26.057-16.823a31 31 0 00-.515.857z"/><path fill="rgba(102,107,121,1)" d="M124 126l-25.76-17.276a31 31 0 00-.53.849z"/><path fill="rgba(101,106,120,1)" d="M124 126l-25.454-17.722a31 31 0 00-.545.838z"/><path fill="rgba(100,105,119,1)" d="M124 126l-25.141-18.164a31 31 0 00-.56.829z"/><path fill="rgba(99,104,118,1)" d="M124 126l-24.82-18.6a31 31 0 00-.574.82z"/><path fill="rgba(98,103,117,1)" d="M124 126l-24.492-19.03a31 31 0 00-.588.809z"/><path fill="rgba(97,102,116,1)" d="M124 126l-24.156-19.455a31 31 0 00-.602.799z"/><path fill="rgba(96,101,115,1)" d="M124 126l-23.813-19.874a31 31 0 00-.615.788z"/><path fill="rgba(95,100,114,1)" d="M124 126l-23.462-20.286a31 31 0 00-.63.777z"/><path fill="rgba(95,100,113,1)" d="M124 126l-23.105-20.692a31 31 0 00-.642.766z"/><path fill="rgba(94,99,112,1)" d="M124 126l-22.74-21.093a31 31 0 00-.656.755z"/><path fill="rgba(93,98,112,1)" d="M124 126l-22.368-21.486a31 31 0 00-.67.743z"/><path fill="rgba(92,97,111,1)" d="M124 126l-21.99-21.873a31 31 0 00-.682.731z"/><path fill="rgba(91,96,110,1)" d="M124 126l-21.605-22.254a31 31 0 00-.695.72z"/><path fill="rgba(90,95,109,1)" d="M124 126l-21.213-22.627a31 31 0 00-.707.707z"/><path fill="rgba(89,94,108,1)" d="M124 126l-20.815-22.994a31 31 0 00-.72.694z"/><path fill="rgba(89,94,107,1)" d="M124 126l-20.41-23.354a31 31 0 00-.732.682z"/><path fill="rgba(88,93,106,1)" d="M124 126l-20-23.707a31 31 0 00-.743.67z"/><path fill="rgba(87,92,105,1)" d="M124 126l-19.583-24.052a31 31 0 00-.755.656z"/><path fill="rgba(86,91,104,1)" d="M124 126l-19.16-24.39a31 31 0 00-.766.643z"/><path fill="rgba(85,90,103,1)" d="M124 126l-18.732-24.72a31 31 0 00-.777.628z"/><path fill="rgba(84,89,103,1)" d="M124 126l-18.297-25.044a31 31 0 00-.789.616z"/><path fill="rgba(83,88,102,1)" d="M124 126l-17.858-25.36a31 31 0 00-.798.602z"/><path fill="rgba(83,88,101,1)" d="M124 126l-17.412-25.667a31 31 0 00-.81.587z"/><path fill="rgba(82,87,100,1)" d="M124 126l-16.962-25.967a31 31 0 00-.819.573z"/><path fill="rgba(81,86,99,1)" d="M124 126l-16.506-26.26a31 31 0 00-.829.56z"/><path fill="rgba(80,85,98,1)" d="M124 126l-16.045-26.543a31 31 0 00-.839.544z"/><path fill="rgba(80,85,98,1)" d="M124 126l-15.58-26.82a31 31 0 00-.847.53z"/><path fill="rgba(81,86,99,1)" d="M124 126l-15.109-27.087a31 31 0 00-.857.515z"/><path fill="rgba(81,86,99,1)" d="M124 126l-14.634-27.347a31 31 0 00-.866.5z"/><path fill="rgba(82,87,100,1)" d="M124 126l-14.154-27.598a31 31 0 00-.875.485z"/><path fill="rgba(82,87,100,1)" d="M124 126l-13.67-27.84a31 31 0 00-.884.469z"/><path fill="rgba(82,87,101,1)" d="M124 126l-13.183-28.075a31 31 0 00-.89.454z"/><path fill="rgba(83,88,101,1)" d="M124 126l-12.69-28.301a31 31 0 00-.9.438z"/><path fill="rgba(83,88,101,1)" d="M124 126l-12.195-28.518a31 31 0 00-.906.422z"/><path fill="rgba(84,89,102,1)" d="M124 126l-11.695-28.727a31 31 0 00-.914.407z"/><path fill="rgba(84,89,102,1)" d="M124 126l-11.192-28.926a31 31 0 00-.92.39z"/><path fill="rgba(84,89,103,1)" d="M124 126l-10.686-29.117a31 31 0 00-.927.374z"/><path fill="rgba(85,90,103,1)" d="M124 126l-10.176-29.3a31 31 0 00-.933.359z"/><path fill="rgba(85,90,103,1)" d="M124 126l-9.663-29.472a31 31 0 00-.94.342z"/><path fill="rgba(85,91,104,1)" d="M124 126l-9.147-29.637a31 31 0 00-.946.326z"/><path fill="rgba(86,91,104,1)" d="M124 126l-8.628-29.792a31 31 0 00-.952.31z"/><path fill="rgba(86,91,105,1)" d="M124 126l-8.107-29.938a31 31 0 00-.957.293z"/><path fill="rgba(87,92,105,1)" d="M124 126l-7.583-30.075a31 31 0 00-.962.276z"/><path fill="rgba(87,92,106,1)" d="M124 126l-7.057-30.203a31 31 0 00-.966.26z"/><path fill="rgba(87,93,106,1)" d="M124 126l-6.53-30.321a31 31 0 00-.97.242z"/><path fill="rgba(88,93,106,1)" d="M124 126l-6-30.43a31 31 0 00-.973.225z"/><path fill="rgba(88,93,107,1)" d="M124 126l-5.467-30.53a31 31 0 00-.978.207z"/><path fill="rgba(89,94,107,1)" d="M124 126l-4.933-30.621a31 31 0 00-.982.19z"/><path fill="rgba(89,94,108,1)" d="M124 126l-4.398-30.703a31 31 0 00-.985.174z"/><path fill="rgba(89,95,108,1)" d="M124 126l-3.862-30.775a31 31 0 00-.987.157z"/><path fill="rgba(90,95,108,1)" d="M124 126l-3.324-30.837a31 31 0 00-.99.139z"/><path fill="rgba(90,95,109,1)" d="M124 126l-2.785-30.89a31 31 0 00-.993.121z"/><path fill="rgba(91,96,109,1)" d="M124 126l-2.246-30.935a31 31 0 00-.994.105z"/><path fill="rgba(91,96,110,1)" d="M124 126l-1.706-30.97a31 31 0 00-.996.088z"/><path fill="rgba(91,97,110,1)" d="M124 126l-1.165-30.994a31 31 0 00-.997.07z"/><path fill="rgba(92,97,111,1)" d="M124 126l-.624-31.01a31 31 0 00-.998.052z"/><path fill="rgba(92,97,111,1)" d="M124 126l-.082-31.016a31 31 0 00-1 .035z"/><path fill="rgba(92,98,111,1)" d="M124 126l.459-31.013a31 31 0 00-1 .018z"/><path fill="rgba(93,98,112,1)" d="M124 126l1-31a31 31 0 00-1 0z"/><path fill="rgba(93,99,112,1)" d="M124 126l1.54-30.978a31 31 0 00-.999-.017z"/><path fill="rgba(94,99,113,1)" d="M124 126l2.081-30.946a31 31 0 00-1-.035z"/><path fill="rgba(94,100,113,1)" d="M124 126l2.621-30.905a31 31 0 00-.999-.053z"/><path fill="rgba(94,100,113,1)" d="M124 126l3.16-30.855a31 31 0 00-.998-.07z"/><path fill="rgba(95,100,114,1)" d="M124 126l3.698-30.795a31 31 0 00-.996-.087z"/><path fill="rgba(95,101,114,1)" d="M124 126l4.235-30.726a31 31 0 00-.995-.104z"/><path fill="rgba(96,101,115,1)" d="M124 126l4.77-30.647a31 31 0 00-.992-.122z"/><path fill="rgba(96,102,115,1)" d="M124 126l5.305-30.56a31 31 0 00-.99-.138z"/><path fill="rgba(96,102,116,1)" d="M124 126l5.837-30.462a31 31 0 00-.988-.156z"/><path fill="rgba(97,102,116,1)" d="M124 126l6.368-30.355a31 31 0 00-.985-.174z"/><path fill="rgba(97,103,116,1)" d="M124 126l6.897-30.24a31 31 0 00-.982-.19z"/><path fill="rgba(98,103,117,1)" d="M124 126l7.423-30.115a31 31 0 00-.978-.208z"/><path fill="rgba(98,104,117,1)" d="M124 126l7.948-29.98a31 31 0 00-.975-.225z"/><path fill="rgba(98,104,118,1)" d="M124 126l8.47-29.837a31 31 0 00-.97-.242z"/><path fill="rgba(99,104,118,1)" d="M124 126l8.99-29.685a31 31 0 00-.967-.259z"/><path fill="rgba(99,105,118,1)" d="M124 126l9.506-29.523a31 31 0 00-.961-.276z"/><path fill="rgba(99,105,119,1)" d="M124 126l10.02-29.353a31 31 0 00-.956-.292z"/><path fill="rgba(100,106,119,1)" d="M124 126l10.53-29.174a31 31 0 00-.95-.309z"/><path fill="rgba(100,106,120,1)" d="M124 126l11.038-28.986a31 31 0 00-.945-.325z"/><path fill="rgba(101,106,120,1)" d="M124 126l11.542-28.788a31 31 0 00-.94-.342z"/><path fill="rgba(101,107,121,1)" d="M124 126l12.043-28.583a31 31 0 00-.934-.358z"/><path fill="rgba(101,107,121,1)" d="M124 126l12.54-28.368a31 31 0 00-.927-.375z"/><path fill="rgba(102,108,121,1)" d="M124 126l13.033-28.145a31 31 0 00-.92-.39z"/><path fill="rgba(102,108,122,1)" d="M124 126l13.522-27.913a31 31 0 00-.913-.407z"/><path fill="rgba(103,108,122,1)" d="M124 126l14.007-27.673a31 31 0 00-.906-.423z"/><path fill="rgba(103,109,123,1)" d="M124 126l14.488-27.424a31 31 0 00-.898-.439z"/><path fill="rgba(103,109,123,1)" d="M124 126l14.965-27.167a31 31 0 00-.891-.454z"/><path fill="rgba(104,110,123,1)" d="M124 126l15.437-26.902a31 31 0 00-.883-.47z"/><path fill="rgba(104,110,124,1)" d="M124 126l15.904-26.628a31 31 0 00-.875-.485z"/><path fill="rgba(105,110,124,1)" d="M124 126l16.366-26.347a31 31 0 00-.866-.5z"/><path fill="rgba(105,111,125,1)" d="M124 126l16.823-26.057a31 31 0 00-.857-.515z"/><path fill="rgba(105,111,125,1)" d="M124 126l17.276-25.76a31 31 0 00-.849-.53z"/><path fill="rgba(106,112,126,1)" d="M124 126l17.722-25.454a31 31 0 00-.838-.545z"/><path fill="rgba(106,112,126,1)" d="M124 126l18.164-25.141a31 31 0 00-.829-.56z"/><path fill="rgba(106,112,126,1)" d="M124 126l18.6-24.82a31 31 0 00-.82-.574z"/><path fill="rgba(107,113,127,1)" d="M124 126l19.03-24.492a31 31 0 00-.809-.588z"/><path fill="rgba(107,113,127,1)" d="M124 126l19.455-24.156a31 31 0 00-.799-.602z"/><path fill="rgba(108,114,128,1)" d="M124 126l19.874-23.813a31 31 0 00-.788-.615z"/><path fill="rgba(108,114,128,1)" d="M124 126l20.286-23.462a31 31 0 00-.777-.63z"/><path fill="rgba(108,114,128,1)" d="M124 126l20.692-23.105a31 31 0 00-.766-.642z"/><path fill="rgba(107,113,127,1)" d="M124 126l21.093-22.74a31 31 0 00-.755-.656z"/><path fill="rgba(107,113,127,1)" d="M124 126l21.486-22.368a31 31 0 00-.743-.67z"/><path fill="rgba(107,113,127,1)" d="M124 126l21.873-21.99a31 31 0 00-.731-.682z"/><path fill="rgba(107,113,126,1)" d="M124 126l22.254-21.605a31 31 0 00-.72-.695z"/><path fill="rgba(106,112,126,1)" d="M124 126l22.627-21.213a31 31 0 00-.707-.707z"/><path fill="rgba(106,112,126,1)" d="M124 126l22.994-20.815a31 31 0 00-.694-.72z"/><path fill="rgba(106,112,125,1)" d="M124 126l23.354-20.41a31 31 0 00-.682-.732z"/><path fill="rgba(105,111,125,1)" d="M124 126l23.707-20a31 31 0 00-.67-.743z"/><path fill="rgba(105,111,125,1)" d="M124 126l24.052-19.583a31 31 0 00-.656-.755z"/><path fill="rgba(105,111,125,1)" d="M124 126l24.39-19.16a31 31 0 00-.643-.766z"/><path fill="rgba(104,110,124,1)" d="M124 126l24.72-18.732a31 31 0 00-.628-.777z"/><path fill="rgba(104,110,124,1)" d="M124 126l25.044-18.297a31 31 0 00-.616-.789z"/><path fill="rgba(104,110,124,1)" d="M124 126l25.36-17.858a31 31 0 00-.602-.798z"/><path fill="rgba(104,110,123,1)" d="M124 126l25.667-17.412a31 31 0 00-.587-.81z"/><path fill="rgba(103,109,123,1)" d="M124 126l25.967-16.962a31 31 0 00-.573-.819z"/><path fill="rgba(103,109,123,1)" d="M124 126l26.26-16.506a31 31 0 00-.56-.829z"/><path fill="rgba(103,109,122,1)" d="M124 126l26.543-16.045a31 31 0 00-.544-.839z"/><path fill="rgba(102,108,122,1)" d="M124 126l26.82-15.58a31 31 0 00-.53-.847z"/><path fill="rgba(102,108,122,1)" d="M124 126l27.087-15.109a31 31 0 00-.515-.857z"/><path fill="rgba(102,108,121,1)" d="M124 126l27.347-14.634a31 31 0 00-.5-.866z"/><path fill="rgba(102,108,121,1)" d="M124 126l27.598-14.154a31 31 0 00-.485-.875z"/><path fill="rgba(101,107,121,1)" d="M124 126l27.84-13.67a31 31 0 00-.469-.884z"/><path fill="rgba(101,107,120,1)" d="M124 126l28.075-13.183a31 31 0 00-.454-.89z"/><path fill="rgba(101,107,120,1)" d="M124 126l28.301-12.69a31 31 0 00-.438-.9z"/><path fill="rgba(100,106,120,1)" d="M124 126l28.518-12.195a31 31 0 00-.422-.906z"/><path fill="rgba(100,106,120,1)" d="M124 126l28.727-11.695a31 31 0 00-.407-.914z"/><path fill="rgba(100,106,119,1)" d="M124 126l28.926-11.192a31 31 0 00-.39-.92z"/><path fill="rgba(99,105,119,1)" d="M124 126l29.117-10.686a31 31 0 00-.374-.927z"/><path fill="rgba(99,105,119,1)" d="M124 126l29.3-10.176a31 31 0 00-.359-.933z"/><path fill="rgba(99,105,118,1)" d="M124 126l29.472-9.663a31 31 0 00-.342-.94z"/><path fill="rgba(99,105,118,1)" d="M124 126l29.637-9.147a31 31 0 00-.326-.946z"/><path fill="rgba(98,104,118,1)" d="M124 126l29.792-8.628a31 31 0 00-.31-.952z"/><path fill="rgba(98,104,117,1)" d="M124 126l29.938-8.107a31 31 0 00-.293-.957z"/><path fill="rgba(98,104,117,1)" d="M124 126l30.075-7.583a31 31 0 00-.276-.962z"/><path fill="rgba(97,103,117,1)" d="M124 126l30.203-7.057a31 31 0 00-.26-.966z"/><path fill="rgba(97,103,116,1)" d="M124 126l30.321-6.53a31 31 0 00-.242-.97z"/><path fill="rgba(97,103,116,1)" d="M124 126l30.43-6a31 31 0 00-.225-.973z"/><path fill="rgba(97,103,116,1)" d="M124 126l30.53-5.467a31 31 0 00-.207-.978z"/><path fill="rgba(96,102,115,1)" d="M124 126l30.621-4.933a31 31 0 00-.19-.982z"/><path fill="rgba(96,102,115,1)" d="M124 126l30.703-4.398a31 31 0 00-.174-.985z"/><path fill="rgba(96,102,115,1)" d="M124 126l30.775-3.862a31 31 0 00-.157-.987z"/><path fill="rgba(95,101,115,1)" d="M124 126l30.837-3.324a31 31 0 00-.139-.99z"/><path fill="rgba(95,101,114,1)" d="M124 126l30.89-2.785a31 31 0 00-.121-.993z"/><path fill="rgba(95,101,114,1)" d="M124 126l30.935-2.246a31 31 0 00-.105-.994z"/><path fill="rgba(94,100,114,1)" d="M124 126l30.97-1.706a31 31 0 00-.088-.996z"/><path fill="rgba(94,100,113,1)" d="M124 126l30.994-1.165a31 31 0 00-.07-.997z"/><path fill="rgba(94,100,113,1)" d="M124 126l31.01-.624a31 31 0 00-.052-.998z"/><path fill="rgba(94,100,113,1)" d="M124 126l31.016-.082a31 31 0 00-.035-1z"/><path fill="rgba(93,99,112,1)" d="M124 126l31.013.459a31 31 0 00-.018-1z"/></g><path fill="#fff" fill-opacity=".22" d="M107 144v-36h34v36zm16.796-4.858c7.923 0 14.346-6.423 14.346-14.346s-6.423-14.346-14.346-14.346-14.346 6.423-14.346 14.346 6.423 14.346 14.346 14.346z" filter="url(#M)" mask="url(&quot;#N&quot;)"/><g opacity=".3"><g filter="url(#O)"><path fill="none" d="M191.578 102.158s-45.84 28.248-53.692 93.41l-10.58 1.545s-6.368-69.949 53.343-101.317l6.579-3.256z" mask="url(&quot;#P&quot;)"/><path fill="#171e2e" fill-opacity=".4" d="M191.578 102.158s-45.84 28.248-53.692 93.41l-10.58 1.545s-6.368-69.949 53.343-101.317l6.579-3.256z"/></g><path fill="url(#Q)" d="M191.578 102.158s-45.84 28.248-53.692 93.41l-10.58 1.545s-6.368-69.949 53.343-101.317l6.579-3.256z"/></g><g opacity=".3"><g filter="url(#R)"><path fill="none" d="M55.15 102.158s45.84 28.248 53.692 93.41l10.58 1.545s6.368-69.949-53.343-101.317l-6.578-3.256z" mask="url(&quot;#S&quot;)"/><path fill="#171e2e" fill-opacity=".4" d="M55.15 102.158s45.84 28.248 53.692 93.41l10.58 1.545s6.368-69.949-53.343-101.317l-6.578-3.256z"/></g><path fill="url(#T)" d="M55.15 102.158s45.84 28.248 53.692 93.41l10.58 1.545s6.368-69.949-53.343-101.317l-6.578-3.256z"/></g><g opacity=".3"><g filter="url(#U)" transform="rotate(120 123.5 92)"><path fill="none" d="M92.15 42.158s45.84 28.248 53.692 93.41l10.58 1.545s6.368-69.949-53.343-101.317l-6.578-3.256z" mask="url(&quot;#V&quot;)"/><path fill="#10141d" fill-opacity=".61" d="M92.15 42.158s45.84 28.248 53.692 93.41l10.58 1.545s6.368-69.949-53.343-101.317l-6.578-3.256z"/></g><path fill="url(#W)" d="M92.15 42.158s45.84 28.248 53.692 93.41l10.58 1.545s6.368-69.949-53.343-101.317l-6.578-3.256z" transform="rotate(120 123.5 92)"/></g><g filter="url(#X)"><path fill="none" d="M86.213 151.895a1.783 1.783 0 100-3.565 1.783 1.783 0 000 3.565z" mask="url(&quot;#Y&quot;)"/><path fill="#fff" fill-opacity=".1" d="M86.213 151.895a1.783 1.783 0 100-3.565 1.783 1.783 0 000 3.565z"/></g><path fill="#1a1923" d="M86.213 151.895a1.783 1.783 0 100-3.565 1.783 1.783 0 000 3.565z"/><g filter="url(#Z)"><path fill="none" d="M92.163 160.215a1.783 1.783 0 100-3.565 1.783 1.783 0 000 3.565z" mask="url(&quot;#aa&quot;)"/><path fill="#fff" fill-opacity=".1" d="M92.163 160.215a1.783 1.783 0 100-3.565 1.783 1.783 0 000 3.565z"/></g><path fill="#1a1923" d="M92.163 160.215a1.783 1.783 0 100-3.565 1.783 1.783 0 000 3.565z"/><g filter="url(#ab)"><path fill="none" d="M98.103 168.535a1.783 1.783 0 100-3.565 1.783 1.783 0 000 3.565z" mask="url(&quot;#ac&quot;)"/><path fill="#fff" fill-opacity=".1" d="M98.103 168.535a1.783 1.783 0 100-3.565 1.783 1.783 0 000 3.565z"/></g><path fill="#1a1923" d="M98.103 168.535a1.783 1.783 0 100-3.565 1.783 1.783 0 000 3.565z"/><g filter="url(#ad)"><path fill="none" d="M82.653 161.405a1.783 1.783 0 100-3.565 1.783 1.783 0 000 3.565z" mask="url(&quot;#ae&quot;)"/><path fill="#fff" fill-opacity=".1" d="M82.653 161.405a1.783 1.783 0 100-3.565 1.783 1.783 0 000 3.565z"/></g><path fill="#1a1923" d="M82.653 161.405a1.783 1.783 0 100-3.565 1.783 1.783 0 000 3.565z"/><g filter="url(#af)"><path fill="none" d="M76.713 153.085a1.783 1.783 0 100-3.565 1.783 1.783 0 000 3.565z" mask="url(&quot;#ag&quot;)"/><path fill="#fff" fill-opacity=".1" d="M76.713 153.085a1.783 1.783 0 100-3.565 1.783 1.783 0 000 3.565z"/></g><path fill="#1a1923" d="M76.713 153.085a1.783 1.783 0 100-3.565 1.783 1.783 0 000 3.565z"/><g opacity=".7"><g filter="url(#ah)"><path fill="none" d="M71.953 161.405a1.783 1.783 0 100-3.565 1.783 1.783 0 000 3.565z" mask="url(&quot;#ai&quot;)"/><path fill="#fff" fill-opacity=".1" d="M71.953 161.405a1.783 1.783 0 100-3.565 1.783 1.783 0 000 3.565z"/></g><path fill="#0d0c14" d="M71.953 161.405a1.783 1.783 0 100-3.565 1.783 1.783 0 000 3.565z"/></g><g opacity=".7"><g filter="url(#aj)"><path fill="none" d="M64.823 151.895a1.783 1.783 0 100-3.565 1.783 1.783 0 000 3.565z" mask="url(&quot;#ak&quot;)"/><path fill="#fff" fill-opacity=".1" d="M64.823 151.895a1.783 1.783 0 100-3.565 1.783 1.783 0 000 3.565z"/></g><path fill="#0d0c14" d="M64.823 151.895a1.783 1.783 0 100-3.565 1.783 1.783 0 000 3.565z"/></g><g opacity=".6"><g filter="url(#al)"><path fill="none" d="M77.903 170.905a1.783 1.783 0 100-3.565 1.783 1.783 0 000 3.565z" mask="url(&quot;#am&quot;)"/><path fill="#fff" fill-opacity=".1" d="M77.903 170.905a1.783 1.783 0 100-3.565 1.783 1.783 0 000 3.565z"/></g><path fill="#0d0c14" d="M77.903 170.905a1.783 1.783 0 100-3.565 1.783 1.783 0 000 3.565z"/></g><g filter="url(#an)"><path fill="none" d="M70.773 144.765a1.783 1.783 0 100-3.565 1.783 1.783 0 000 3.565z" mask="url(&quot;#ao&quot;)"/><path fill="#fff" fill-opacity=".1" d="M70.773 144.765a1.783 1.783 0 100-3.565 1.783 1.783 0 000 3.565z"/></g><path fill="#1a1923" d="M70.773 144.765a1.783 1.783 0 100-3.565 1.783 1.783 0 000 3.565z"/><g filter="url(#ap)"><path fill="none" d="M88.593 169.725a1.783 1.783 0 100-3.565 1.783 1.783 0 000 3.565z" mask="url(&quot;#aq&quot;)"/><path fill="#fff" fill-opacity=".1" d="M88.593 169.725a1.783 1.783 0 100-3.565 1.783 1.783 0 000 3.565z"/></g><path fill="#1a1923" d="M88.593 169.725a1.783 1.783 0 100-3.565 1.783 1.783 0 000 3.565z"/><g filter="url(#ar)"><path fill="none" d="M94.533 178.035a1.783 1.783 0 100-3.565 1.783 1.783 0 000 3.565z" mask="url(&quot;#as&quot;)"/><path fill="#fff" fill-opacity=".1" d="M94.533 178.035a1.783 1.783 0 100-3.565 1.783 1.783 0 000 3.565z"/></g><path fill="#1a1923" d="M94.533 178.035a1.783 1.783 0 100-3.565 1.783 1.783 0 000 3.565z"/><g filter="url(#at)" transform="matrix(-1 0 0 1 333 0)"><path fill="none" d="M170.363 151.895a1.783 1.783 0 100-3.565 1.783 1.783 0 000 3.565z" mask="url(&quot;#au&quot;)"/><path fill="#fff" fill-opacity=".1" d="M170.363 151.895a1.783 1.783 0 100-3.565 1.783 1.783 0 000 3.565z"/></g><path fill="#282734" d="M162.637 151.895a1.783 1.783 0 110-3.565 1.783 1.783 0 010 3.565z"/><g filter="url(#av)" transform="matrix(-1 0 0 1 333 0)"><path fill="none" d="M176.303 160.215a1.783 1.783 0 100-3.565 1.783 1.783 0 000 3.565z" mask="url(&quot;#aw&quot;)"/><path fill="#fff" fill-opacity=".1" d="M176.303 160.215a1.783 1.783 0 100-3.565 1.783 1.783 0 000 3.565z"/></g><path fill="#282734" d="M156.697 160.215a1.783 1.783 0 110-3.565 1.783 1.783 0 010 3.565z"/><g filter="url(#ax)" transform="matrix(-1 0 0 1 333 0)"><path fill="none" d="M182.243 168.535a1.783 1.783 0 100-3.565 1.783 1.783 0 000 3.565z" mask="url(&quot;#ay&quot;)"/><path fill="#fff" fill-opacity=".1" d="M182.243 168.535a1.783 1.783 0 100-3.565 1.783 1.783 0 000 3.565z"/></g><path fill="#282734" d="M150.757 168.535a1.783 1.783 0 110-3.565 1.783 1.783 0 010 3.565z"/><g filter="url(#az)" transform="matrix(-1 0 0 1 333 0)"><path fill="none" d="M166.793 161.405a1.783 1.783 0 100-3.565 1.783 1.783 0 000 3.565z" mask="url(&quot;#aA&quot;)"/><path fill="#fff" fill-opacity=".1" d="M166.793 161.405a1.783 1.783 0 100-3.565 1.783 1.783 0 000 3.565z"/></g><path fill="#22212d" d="M166.207 161.405a1.783 1.783 0 110-3.565 1.783 1.783 0 010 3.565z"/><g filter="url(#aB)" transform="matrix(-1 0 0 1 333 0)"><path fill="none" d="M160.853 153.085a1.783 1.783 0 100-3.565 1.783 1.783 0 000 3.565z" mask="url(&quot;#aC&quot;)"/><path fill="#fff" fill-opacity=".1" d="M160.853 153.085a1.783 1.783 0 100-3.565 1.783 1.783 0 000 3.565z"/></g><path fill="#22212d" d="M172.147 153.085a1.783 1.783 0 110-3.565 1.783 1.783 0 010 3.565z"/><g opacity=".7"><g filter="url(#aD)" transform="matrix(-1 0 0 1 333 0)"><path fill="none" d="M156.103 161.405a1.783 1.783 0 100-3.565 1.783 1.783 0 000 3.565z" mask="url(&quot;#aE&quot;)"/><path fill="#fff" fill-opacity=".1" d="M156.103 161.405a1.783 1.783 0 100-3.565 1.783 1.783 0 000 3.565z"/></g><path fill="#171722" d="M176.897 161.405a1.783 1.783 0 110-3.565 1.783 1.783 0 010 3.565z"/></g><g opacity=".7"><g filter="url(#aF)" transform="matrix(-1 0 0 1 333 0)"><path fill="none" d="M148.973 151.895a1.783 1.783 0 100-3.565 1.783 1.783 0 000 3.565z" mask="url(&quot;#aG&quot;)"/><path fill="#fff" fill-opacity=".1" d="M148.973 151.895a1.783 1.783 0 100-3.565 1.783 1.783 0 000 3.565z"/></g><path fill="#171722" d="M184.027 151.895a1.783 1.783 0 110-3.565 1.783 1.783 0 010 3.565z"/></g><g opacity=".6"><g filter="url(#aH)" transform="matrix(-1 0 0 1 333 0)"><path fill="none" d="M162.043 170.905a1.783 1.783 0 100-3.565 1.783 1.783 0 000 3.565z" mask="url(&quot;#aI&quot;)"/><path fill="#fff" fill-opacity=".1" d="M162.043 170.905a1.783 1.783 0 100-3.565 1.783 1.783 0 000 3.565z"/></g><path fill="#171722" d="M170.957 170.905a1.783 1.783 0 110-3.565 1.783 1.783 0 010 3.565z"/></g><g filter="url(#aJ)" transform="matrix(-1 0 0 1 333 0)"><path fill="none" d="M154.913 144.765a1.783 1.783 0 100-3.565 1.783 1.783 0 000 3.565z" mask="url(&quot;#aK&quot;)"/><path fill="#fff" fill-opacity=".1" d="M154.913 144.765a1.783 1.783 0 100-3.565 1.783 1.783 0 000 3.565z"/></g><path fill="#22212d" d="M178.087 144.765a1.783 1.783 0 110-3.565 1.783 1.783 0 010 3.565z"/><g filter="url(#aL)" transform="matrix(-1 0 0 1 333 0)"><path fill="none" d="M172.733 169.725a1.783 1.783 0 100-3.565 1.783 1.783 0 000 3.565z" mask="url(&quot;#aM&quot;)"/><path fill="#fff" fill-opacity=".1" d="M172.733 169.725a1.783 1.783 0 100-3.565 1.783 1.783 0 000 3.565z"/></g><path fill="#22212d" d="M160.267 169.725a1.783 1.783 0 110-3.565 1.783 1.783 0 010 3.565z"/><g filter="url(#aN)" transform="matrix(-1 0 0 1 333 0)"><path fill="none" d="M178.683 178.035a1.783 1.783 0 100-3.565 1.783 1.783 0 000 3.565z" mask="url(&quot;#aO&quot;)"/><path fill="#fff" fill-opacity=".1" d="M178.683 178.035a1.783 1.783 0 100-3.565 1.783 1.783 0 000 3.565z"/></g><path fill="#22212d" d="M154.317 178.035a1.783 1.783 0 110-3.565 1.783 1.783 0 010 3.565z"/><g opacity=".4"><g filter="url(#aP)"><path fill="none" d="M190.567 122.472a63.36 63.36 0 00-2.683-18.29C179.778 77.26 154.233 57.6 123.974 57.6c-29.451 0-54.437 18.624-63.224 44.44a63.283 63.283 0 00-3.37 20.432c0 35.828 133.187 35.828 133.187 0z" mask="url(&quot;#aQ&quot;)"/><path fill-opacity=".56" d="M190.567 122.472a63.36 63.36 0 00-2.683-18.29C179.778 77.26 154.233 57.6 123.974 57.6c-29.451 0-54.437 18.624-63.224 44.44a63.283 63.283 0 00-3.37 20.432c0 35.828 133.187 35.828 133.187 0z"/></g><path fill="url(#aR)" d="M190.567 122.472a63.36 63.36 0 00-2.683-18.29C179.778 77.26 154.233 57.6 123.974 57.6c-29.451 0-54.437 18.624-63.224 44.44a63.283 63.283 0 00-3.37 20.432c0 35.828 133.187 35.828 133.187 0z"/><path fill-opacity=".64" d="M49 162V45h150v117zm141.567-35.528a63.36 63.36 0 00-2.683-18.29C179.778 81.26 154.233 61.6 123.974 61.6c-29.451 0-54.437 18.624-63.224 44.44a63.283 63.283 0 00-3.37 20.432c0 35.828 133.187 35.828 133.187 0z" filter="url(#aS)" mask="url(&quot;#aT&quot;)"/></g><g filter="url(#aU)" opacity=".8"><path fill="url(#aV)" d="M117.589 74.464s-11.682 1.5-18.186 5.804l-4.185-6.95s12.241-7.188 21.042-7.719zm-2.075-11.02s-14.064 3.226-21.287 8.24l-1.14-1.717s7.566-6.201 22.427-8.467zM97.729 81.093s-11.006 6.946-16.089 14.37l-6.006-4.65s8.624-12.321 17.935-16.437zm-5.023-8.12S81.693 78.627 74.789 89.51l-2.11-1.366s8.553-11.857 18.606-17.055z"/></g><g filter="url(#aW)" opacity=".25"><path fill="#8fa0b3" d="M59.15 151.075s18.74 42.548 63.588 42.548 64.645-41.652 67.828-46.403c0 0-21.514 36.672-67.134 36.672-45.62 0-64.282-32.817-64.282-32.817z"/></g><g filter="url(#aX)" transform="rotate(51.717)"><path fill="#fff" d="M158.53-70.263s20.613-5.818 30.936-2.483l1.291-3.67s-20.606-3.847-32.933 2.595z" opacity=".1"/></g><g filter="url(#aY)"><path fill="none" stroke="#fff" stroke-opacity=".5" d="M181.601 81.883c3.314-2.343 6.878-4.9 10.192-7.243 0 0 38.537 47.066-.311 102.254-3.287-2.313-6.735-5.06-10.022-7.373"/></g><path fill="none" stroke="#989cb3" stroke-miterlimit="20" d="M181.601 81.883c3.314-2.343 6.878-4.9 10.192-7.243 0 0 38.537 47.066-.311 102.254-3.287-2.313-6.735-5.06-10.022-7.373"/></svg>