<svg width="16" height="16" fill="none" xmlns="http://www.w3.org/2000/svg"><path fill-rule="evenodd" clip-rule="evenodd" d="M2.27 10.918C1.071 12.097 2.084 13.306.49 15.1c-.719.81 2.961.563 4.784-1.23.773-.76.555-1.868-.275-2.683-.828-.816-1.955-1.03-2.729-.27zM15.56.698c-.617-.605-7.43 4.855-9.458 6.848-1.007.99-1.343 1.52-1.65 1.917-.135.172.042.226.122.267.398.202.677.392 1.038.746.36.354.553.629.76 1.02.04.08.095.253.27.122.404-.304.944-.634 1.95-1.624C10.62 8 16.174 1.302 15.559.698z" fill="#fff"/></svg>